<?xml version="1.0" encoding="UTF-8" standalone="no"?>
<!-- Created with Inkscape (http://www.inkscape.org/) -->

<svg
   width="4.25in"
   height="7in"
   viewBox="0 0 107.95 177.80001"
   version="1.1"
   id="svg50987"
   sodipodi:docname="Figure_ClusterSamples.svg"
   inkscape:version="1.1.1 (3bf5ae0d25, 2021-09-20)"
   inkscape:export-filename="C:\Users\User\Documents\Research\Mihalas_LearningSpikeCurrents\GLIFR_review\main\figures\paper_figures\Figure_ClusterSamples.png"
   inkscape:export-xdpi="600"
   inkscape:export-ydpi="600"
   xmlns:inkscape="http://www.inkscape.org/namespaces/inkscape"
   xmlns:sodipodi="http://sodipodi.sourceforge.net/DTD/sodipodi-0.dtd"
   xmlns="http://www.w3.org/2000/svg"
   xmlns:svg="http://www.w3.org/2000/svg">
  <sodipodi:namedview
     id="namedview50989"
     pagecolor="#ffffff"
     bordercolor="#666666"
     borderopacity="1.0"
     inkscape:pageshadow="2"
     inkscape:pageopacity="0.0"
     inkscape:pagecheckerboard="0"
     inkscape:document-units="mm"
     showgrid="false"
     inkscape:zoom="1.5001965"
     inkscape:cx="299.96071"
     inkscape:cy="200.64038"
     inkscape:window-width="1920"
     inkscape:window-height="1046"
     inkscape:window-x="-11"
     inkscape:window-y="-11"
     inkscape:window-maximized="1"
     inkscape:current-layer="layer1"
     units="in" />
  <defs
     id="defs50984">
    <clipPath
       clipPathUnits="userSpaceOnUse"
       id="clipPath1">
      <path
         d="M0 0 L1920 0 L1920 975 L0 975 L0 0 Z"
         id="path51161" />
    </clipPath>
    <clipPath
       clipPathUnits="userSpaceOnUse"
       id="clipPath1-6">
      <path
         d="M0 0 L1920 0 L1920 975 L0 975 L0 0 Z"
         id="path52390" />
    </clipPath>
    <clipPath
       clipPathUnits="userSpaceOnUse"
       id="clipPath1-3">
      <path
         d="M0 0 L1920 0 L1920 975 L0 975 L0 0 Z"
         id="path62011" />
    </clipPath>
    <clipPath
       clipPathUnits="userSpaceOnUse"
       id="clipPath1-2">
      <path
         d="M0 0 L1920 0 L1920 975 L0 975 L0 0 Z"
         id="path1937" />
    </clipPath>
  </defs>
  <g
     inkscape:label="Layer 1"
     inkscape:groupmode="layer"
     id="layer1">
    <text
       xml:space="preserve"
       style="font-size:3.13259px;line-height:1.25;font-family:Arial;-inkscape-font-specification:'Arial, Normal';stroke-width:0.264583"
       x="42.954342"
       y="7.5585322"
       id="text10267-6-1"
       inkscape:export-filename="C:\Users\User\Documents\Research\Mihalas_LearningSpikeCurrents\GLIFR_review\main\figures\paper_figures\Figure_Loss-Curves.png"
       inkscape:export-xdpi="600"
       inkscape:export-ydpi="600"><tspan
         sodipodi:role="line"
         id="tspan10265-3-2"
         style="stroke-width:0.264583"
         x="42.954342"
         y="7.5585322">Model Behavior</tspan></text>
    <g
       style="font-style:normal;font-weight:normal;font-size:12px;font-family:Dialog;color-interpolation:auto;fill:#000000;fill-opacity:1;stroke:#000000;stroke-width:1;stroke-linecap:square;stroke-linejoin:miter;stroke-miterlimit:10;stroke-dasharray:none;stroke-dashoffset:0;stroke-opacity:1;color-rendering:auto;image-rendering:auto;shape-rendering:auto;text-rendering:auto"
       id="g2207"
       transform="matrix(0.03307292,0,0,0.03307292,22.224997,8.9325227)">
      <g
         id="g2109">
        <defs
           id="defs1-1">
          <clipPath
             clipPathUnits="userSpaceOnUse"
             id="clipPath2119">
            <path
               d="M 0,0 H 1920 V 975 H 0 Z"
               id="path2117" />
          </clipPath>
        </defs>
        <g
           style="fill:#ffffff;stroke:#ffffff"
           id="g1943">
          <rect
             x="0"
             y="0"
             width="1920"
             style="stroke:none"
             height="975"
             clip-path="url(#clipPath1)"
             id="rect1941" />
        </g>
        <g
           style="color-interpolation:sRGB;fill:#ffffff;stroke:#ffffff;color-rendering:optimizeSpeed;image-rendering:optimizeSpeed;shape-rendering:crispEdges;text-rendering:optimizeSpeed"
           id="g1949">
          <rect
             x="0"
             width="1920"
             height="975"
             y="0"
             style="stroke:none"
             id="rect1945" />
          <path
             style="stroke:none"
             d="M 250,833 H 1738 V 73 H 250 Z"
             id="path1947" />
        </g>
        <g
           style="color-interpolation:linearRGB;fill:#262626;stroke:#262626;stroke-linejoin:round;color-rendering:optimizeQuality;image-rendering:optimizeQuality;text-rendering:geometricPrecision"
           id="g1991">
          <line
             y2="833"
             style="fill:none"
             x1="250"
             x2="1738"
             y1="833"
             id="line1951" />
          <line
             y2="73"
             style="fill:none"
             x1="250"
             x2="1738"
             y1="73"
             id="line1953" />
          <line
             y2="818.12"
             style="fill:none"
             x1="250"
             x2="250"
             y1="833"
             id="line1955" />
          <line
             y2="818.12"
             style="fill:none"
             x1="436"
             x2="436"
             y1="833"
             id="line1957" />
          <line
             y2="818.12"
             style="fill:none"
             x1="622"
             x2="622"
             y1="833"
             id="line1959" />
          <line
             y2="818.12"
             style="fill:none"
             x1="808"
             x2="808"
             y1="833"
             id="line1961" />
          <line
             y2="818.12"
             style="fill:none"
             x1="994"
             x2="994"
             y1="833"
             id="line1963" />
          <line
             y2="818.12"
             style="fill:none"
             x1="1180"
             x2="1180"
             y1="833"
             id="line1965" />
          <line
             y2="818.12"
             style="fill:none"
             x1="1366"
             x2="1366"
             y1="833"
             id="line1967" />
          <line
             y2="818.12"
             style="fill:none"
             x1="1552"
             x2="1552"
             y1="833"
             id="line1969" />
          <line
             y2="818.12"
             style="fill:none"
             x1="1738"
             x2="1738"
             y1="833"
             id="line1971" />
          <line
             y2="87.879997"
             style="fill:none"
             x1="250"
             x2="250"
             y1="73"
             id="line1973" />
          <line
             y2="87.879997"
             style="fill:none"
             x1="436"
             x2="436"
             y1="73"
             id="line1975" />
          <line
             y2="87.879997"
             style="fill:none"
             x1="622"
             x2="622"
             y1="73"
             id="line1977" />
          <line
             y2="87.879997"
             style="fill:none"
             x1="808"
             x2="808"
             y1="73"
             id="line1979" />
          <line
             y2="87.879997"
             style="fill:none"
             x1="994"
             x2="994"
             y1="73"
             id="line1981" />
          <line
             y2="87.879997"
             style="fill:none"
             x1="1180"
             x2="1180"
             y1="73"
             id="line1983" />
          <line
             y2="87.879997"
             style="fill:none"
             x1="1366"
             x2="1366"
             y1="73"
             id="line1985" />
          <line
             y2="87.879997"
             style="fill:none"
             x1="1552"
             x2="1552"
             y1="73"
             id="line1987" />
          <line
             y2="87.879997"
             style="fill:none"
             x1="1738"
             x2="1738"
             y1="73"
             id="line1989" />
        </g>
        <g
           transform="translate(250,846.6)"
           style="font-size:48px;font-family:SansSerif;color-interpolation:linearRGB;fill:#262626;stroke:#262626;color-rendering:optimizeQuality;image-rendering:optimizeQuality;text-rendering:geometricPrecision"
           id="g1995">
          <path
             style="stroke:none"
             d="m -11.5,32.0469 q 0,-6.0938 1.25,-9.8047 1.25,-3.711 3.7266,-5.7266 2.4765,-2.0156 6.2265,-2.0156 2.7657,0 4.8516,1.1094 2.0859,1.1094 3.4453,3.2109 1.3594,2.1016 2.1328,5.1094 0.7734,3.0078 0.7734,8.1172 0,6.0469 -1.2421,9.7656 -1.2422,3.7187 -3.7188,5.75 -2.4765,2.0313 -6.2422,2.0313 -4.9687,0 -7.8125,-3.5782 Q -11.5,41.7344 -11.5,32.0469 Z m 4.3281,0 q 0,8.4687 1.9844,11.2656 1.9844,2.7969 4.8906,2.7969 2.9063,0 4.8828,-2.8125 1.9766,-2.8125 1.9766,-11.25 0,-8.4844 -1.9766,-11.2735 -1.9765,-2.789 -4.9297,-2.789 -2.9062,0 -4.6406,2.4687 -2.1875,3.1407 -2.1875,11.5938 z"
             id="path1993" />
        </g>
        <g
           transform="translate(436,846.6)"
           style="font-size:48px;font-family:SansSerif;color-interpolation:linearRGB;fill:#262626;stroke:#262626;color-rendering:optimizeQuality;image-rendering:optimizeQuality;text-rendering:geometricPrecision"
           id="g1999">
          <path
             style="stroke:none"
             d="m -11.5,40 4.4219,-0.375 q 0.5,3.2344 2.289,4.8594 1.7891,1.625 4.3203,1.625 3.0469,0 5.1563,-2.2969 2.1094,-2.2969 2.1094,-6.0937 0,-3.6094 -2.0235,-5.6954 -2.0234,-2.0859 -5.3046,-2.0859 -2.0469,0 -3.6876,0.9297 -1.6406,0.9297 -2.5781,2.3984 L -10.75,32.75 -7.4219,15.1094 H 9.6562 v 4.0312 H -4.0469 l -1.8593,9.2344 q 3.0937,-2.1562 6.5,-2.1562 4.5,0 7.5937,3.1171 3.0937,3.1172 3.0937,8.0079 0,4.6718 -2.7187,8.0624 -3.3125,4.1876 -9.0313,4.1876 -4.6874,0 -7.6484,-2.6329 Q -11.0781,44.3281 -11.5,40 Z"
             id="path1997" />
        </g>
        <g
           transform="translate(622,846.6)"
           style="font-size:48px;font-family:SansSerif;color-interpolation:linearRGB;fill:#262626;stroke:#262626;color-rendering:optimizeQuality;image-rendering:optimizeQuality;text-rendering:geometricPrecision"
           id="g2003">
          <path
             style="stroke:none"
             d="m -9.1094,49 h -4.2187 V 22.1094 q -1.5313,1.4531 -4,2.9062 -2.4688,1.4532 -4.4375,2.1875 V 23.125 q 3.5312,-1.6719 6.1797,-4.0391 2.6484,-2.3671 3.7578,-4.5859 h 2.7187 z M 1.6953,32.0469 q 0,-6.0938 1.25,-9.8047 1.25,-3.711 3.7266,-5.7266 Q 9.1484,14.5 12.8984,14.5 q 2.7657,0 4.8516,1.1094 2.0859,1.1094 3.4453,3.2109 1.3594,2.1016 2.1328,5.1094 0.7735,3.0078 0.7735,8.1172 0,6.0469 -1.2422,9.7656 -1.2422,3.7187 -3.7188,5.75 -2.4765,2.0313 -6.2422,2.0313 -4.9687,0 -7.8125,-3.5782 Q 1.6953,41.7344 1.6953,32.0469 Z m 4.3281,0 q 0,8.4687 1.9844,11.2656 1.9844,2.7969 4.8906,2.7969 2.9063,0 4.8828,-2.8125 1.9766,-2.8125 1.9766,-11.25 0,-8.4844 -1.9766,-11.2735 -1.9765,-2.789 -4.9296,-2.789 -2.9063,0 -4.6407,2.4687 -2.1875,3.1407 -2.1875,11.5938 z"
             id="path2001" />
        </g>
        <g
           transform="translate(808,846.6)"
           style="font-size:48px;font-family:SansSerif;color-interpolation:linearRGB;fill:#262626;stroke:#262626;color-rendering:optimizeQuality;image-rendering:optimizeQuality;text-rendering:geometricPrecision"
           id="g2007">
          <path
             style="stroke:none"
             d="m -9.1094,49 h -4.2187 V 22.1094 q -1.5313,1.4531 -4,2.9062 -2.4688,1.4532 -4.4375,2.1875 V 23.125 q 3.5312,-1.6719 6.1797,-4.0391 2.6484,-2.3671 3.7578,-4.5859 h 2.7187 z M 1.6953,40 6.1172,39.625 q 0.5,3.2344 2.289,4.8594 1.7891,1.625 4.3204,1.625 3.0468,0 5.1562,-2.2969 2.1094,-2.2969 2.1094,-6.0937 0,-3.6094 -2.0234,-5.6954 -2.0235,-2.0859 -5.3047,-2.0859 -2.0469,0 -3.6875,0.9297 -1.6407,0.9297 -2.5782,2.3984 L 2.4453,32.75 5.7734,15.1094 h 17.0782 v 4.0312 H 9.1484 L 7.2891,28.375 q 3.0937,-2.1562 6.5,-2.1562 4.5,0 7.5937,3.1171 3.0938,3.1172 3.0938,8.0079 0,4.6718 -2.7188,8.0624 -3.3125,4.1876 -9.0312,4.1876 -4.6875,0 -7.6485,-2.6329 Q 2.1172,44.3281 1.6953,40 Z"
             id="path2005" />
        </g>
        <g
           transform="translate(994,846.6)"
           style="font-size:48px;font-family:SansSerif;color-interpolation:linearRGB;fill:#262626;stroke:#262626;color-rendering:optimizeQuality;image-rendering:optimizeQuality;text-rendering:geometricPrecision"
           id="g2011">
          <path
             style="stroke:none"
             d="M -2.8281,44.9375 V 49 h -22.7188 q -0.0469,-1.5312 0.5,-2.9375 0.8594,-2.3125 2.7735,-4.5625 1.914,-2.25 5.5234,-5.2031 5.5938,-4.5938 7.5625,-7.2813 1.9687,-2.6875 1.9687,-5.0781 0,-2.5 -1.789,-4.2266 -1.7891,-1.7265 -4.6797,-1.7265 -3.0469,0 -4.875,1.8281 -1.8281,1.8281 -1.8437,5.0625 L -24.75,24.4375 q 0.4531,-4.8594 3.3594,-7.3984 2.9062,-2.5391 7.7968,-2.5391 4.9532,0 7.836,2.7422 2.8828,2.7422 2.8828,6.789 0,2.0626 -0.8438,4.0547 -0.8437,1.9922 -2.8046,4.1953 -1.961,2.2032 -6.5078,6.0469 -3.7969,3.1875 -4.875,4.3281 -1.0782,1.1407 -1.7813,2.2813 z M 1.6953,32.0469 q 0,-6.0938 1.25,-9.8047 1.25,-3.711 3.7266,-5.7266 Q 9.1484,14.5 12.8984,14.5 q 2.7657,0 4.8516,1.1094 2.0859,1.1094 3.4453,3.2109 1.3594,2.1016 2.1328,5.1094 0.7735,3.0078 0.7735,8.1172 0,6.0469 -1.2422,9.7656 -1.2422,3.7187 -3.7188,5.75 -2.4765,2.0313 -6.2422,2.0313 -4.9687,0 -7.8125,-3.5782 Q 1.6953,41.7344 1.6953,32.0469 Z m 4.3281,0 q 0,8.4687 1.9844,11.2656 1.9844,2.7969 4.8906,2.7969 2.9063,0 4.8828,-2.8125 1.9766,-2.8125 1.9766,-11.25 0,-8.4844 -1.9766,-11.2735 -1.9765,-2.789 -4.9296,-2.789 -2.9063,0 -4.6407,2.4687 -2.1875,3.1407 -2.1875,11.5938 z"
             id="path2009" />
        </g>
        <g
           transform="translate(1180,846.6)"
           style="font-size:48px;font-family:SansSerif;color-interpolation:linearRGB;fill:#262626;stroke:#262626;color-rendering:optimizeQuality;image-rendering:optimizeQuality;text-rendering:geometricPrecision"
           id="g2015">
          <path
             style="stroke:none"
             d="M -2.8281,44.9375 V 49 h -22.7188 q -0.0469,-1.5312 0.5,-2.9375 0.8594,-2.3125 2.7735,-4.5625 1.914,-2.25 5.5234,-5.2031 5.5938,-4.5938 7.5625,-7.2813 1.9687,-2.6875 1.9687,-5.0781 0,-2.5 -1.789,-4.2266 -1.7891,-1.7265 -4.6797,-1.7265 -3.0469,0 -4.875,1.8281 -1.8281,1.8281 -1.8437,5.0625 L -24.75,24.4375 q 0.4531,-4.8594 3.3594,-7.3984 2.9062,-2.5391 7.7968,-2.5391 4.9532,0 7.836,2.7422 2.8828,2.7422 2.8828,6.789 0,2.0626 -0.8438,4.0547 -0.8437,1.9922 -2.8046,4.1953 -1.961,2.2032 -6.5078,6.0469 -3.7969,3.1875 -4.875,4.3281 -1.0782,1.1407 -1.7813,2.2813 z M 1.6953,40 6.1172,39.625 q 0.5,3.2344 2.289,4.8594 1.7891,1.625 4.3204,1.625 3.0468,0 5.1562,-2.2969 2.1094,-2.2969 2.1094,-6.0937 0,-3.6094 -2.0234,-5.6954 -2.0235,-2.0859 -5.3047,-2.0859 -2.0469,0 -3.6875,0.9297 -1.6407,0.9297 -2.5782,2.3984 L 2.4453,32.75 5.7734,15.1094 h 17.0782 v 4.0312 H 9.1484 L 7.2891,28.375 q 3.0937,-2.1562 6.5,-2.1562 4.5,0 7.5937,3.1171 3.0938,3.1172 3.0938,8.0079 0,4.6718 -2.7188,8.0624 -3.3125,4.1876 -9.0312,4.1876 -4.6875,0 -7.6485,-2.6329 Q 2.1172,44.3281 1.6953,40 Z"
             id="path2013" />
        </g>
        <g
           transform="translate(1366,846.6)"
           style="font-size:48px;font-family:SansSerif;color-interpolation:linearRGB;fill:#262626;stroke:#262626;color-rendering:optimizeQuality;image-rendering:optimizeQuality;text-rendering:geometricPrecision"
           id="g2019">
          <path
             style="stroke:none"
             d="m -24.9844,39.9219 4.2188,-0.5625 q 0.7344,3.5937 2.4765,5.1718 1.7422,1.5782 4.2579,1.5782 2.9687,0 5.0234,-2.0625 2.0547,-2.0625 2.0547,-5.1094 0,-2.9063 -1.8985,-4.7891 -1.8984,-1.8828 -4.8359,-1.8828 -1.1875,0 -2.9687,0.4688 l 0.4687,-3.7032 q 0.4219,0.0469 0.6719,0.0469 2.7031,0 4.8594,-1.4062 2.1562,-1.4063 2.1562,-4.3438 0,-2.3125 -1.5703,-3.8359 -1.5703,-1.5234 -4.0547,-1.5234 -2.4688,0 -4.1094,1.5468 -1.6406,1.5469 -2.1094,4.6406 l -4.2187,-0.75 q 0.7813,-4.25 3.5234,-6.5781 2.7422,-2.3281 6.8203,-2.3281 2.8126,0 5.1797,1.2031 2.3672,1.2031 3.6172,3.2891 1.25,2.0859 1.25,4.4297 0,2.2343 -1.1953,4.0625 -1.1953,1.8281 -3.539,2.9062 3.0468,0.7032 4.7343,2.9141 1.6875,2.2109 1.6875,5.5391 0,4.5 -3.2812,7.6328 -3.2813,3.1328 -8.2969,3.1328 -4.5156,0 -7.5078,-2.6953 -2.9922,-2.6953 -3.4141,-6.9922 z m 26.6797,-7.875 q 0,-6.0938 1.25,-9.8047 1.25,-3.711 3.7266,-5.7266 Q 9.1484,14.5 12.8984,14.5 q 2.7657,0 4.8516,1.1094 2.0859,1.1094 3.4453,3.2109 1.3594,2.1016 2.1328,5.1094 0.7735,3.0078 0.7735,8.1172 0,6.0469 -1.2422,9.7656 -1.2422,3.7187 -3.7188,5.75 -2.4765,2.0313 -6.2422,2.0313 -4.9687,0 -7.8125,-3.5782 Q 1.6953,41.7344 1.6953,32.0469 Z m 4.3281,0 q 0,8.4687 1.9844,11.2656 1.9844,2.7969 4.8906,2.7969 2.9063,0 4.8828,-2.8125 1.9766,-2.8125 1.9766,-11.25 0,-8.4844 -1.9766,-11.2735 -1.9765,-2.789 -4.9296,-2.789 -2.9063,0 -4.6407,2.4687 -2.1875,3.1407 -2.1875,11.5938 z"
             id="path2017" />
        </g>
        <g
           transform="translate(1552,846.6)"
           style="font-size:48px;font-family:SansSerif;color-interpolation:linearRGB;fill:#262626;stroke:#262626;color-rendering:optimizeQuality;image-rendering:optimizeQuality;text-rendering:geometricPrecision"
           id="g2023">
          <path
             style="stroke:none"
             d="m -24.9844,39.9219 4.2188,-0.5625 q 0.7344,3.5937 2.4765,5.1718 1.7422,1.5782 4.2579,1.5782 2.9687,0 5.0234,-2.0625 2.0547,-2.0625 2.0547,-5.1094 0,-2.9063 -1.8985,-4.7891 -1.8984,-1.8828 -4.8359,-1.8828 -1.1875,0 -2.9687,0.4688 l 0.4687,-3.7032 q 0.4219,0.0469 0.6719,0.0469 2.7031,0 4.8594,-1.4062 2.1562,-1.4063 2.1562,-4.3438 0,-2.3125 -1.5703,-3.8359 -1.5703,-1.5234 -4.0547,-1.5234 -2.4688,0 -4.1094,1.5468 -1.6406,1.5469 -2.1094,4.6406 l -4.2187,-0.75 q 0.7813,-4.25 3.5234,-6.5781 2.7422,-2.3281 6.8203,-2.3281 2.8126,0 5.1797,1.2031 2.3672,1.2031 3.6172,3.2891 1.25,2.0859 1.25,4.4297 0,2.2343 -1.1953,4.0625 -1.1953,1.8281 -3.539,2.9062 3.0468,0.7032 4.7343,2.9141 1.6875,2.2109 1.6875,5.5391 0,4.5 -3.2812,7.6328 -3.2813,3.1328 -8.2969,3.1328 -4.5156,0 -7.5078,-2.6953 -2.9922,-2.6953 -3.4141,-6.9922 z M 1.6953,40 6.1172,39.625 q 0.5,3.2344 2.289,4.8594 1.7891,1.625 4.3204,1.625 3.0468,0 5.1562,-2.2969 2.1094,-2.2969 2.1094,-6.0937 0,-3.6094 -2.0234,-5.6954 -2.0235,-2.0859 -5.3047,-2.0859 -2.0469,0 -3.6875,0.9297 -1.6407,0.9297 -2.5782,2.3984 L 2.4453,32.75 5.7734,15.1094 h 17.0782 v 4.0312 H 9.1484 L 7.2891,28.375 q 3.0937,-2.1562 6.5,-2.1562 4.5,0 7.5937,3.1171 3.0938,3.1172 3.0938,8.0079 0,4.6718 -2.7188,8.0624 -3.3125,4.1876 -9.0312,4.1876 -4.6875,0 -7.6485,-2.6329 Q 2.1172,44.3281 1.6953,40 Z"
             id="path2021" />
        </g>
        <g
           transform="translate(1738,846.6)"
           style="font-size:48px;font-family:SansSerif;color-interpolation:linearRGB;fill:#262626;stroke:#262626;color-rendering:optimizeQuality;image-rendering:optimizeQuality;text-rendering:geometricPrecision"
           id="g2027">
          <path
             style="stroke:none"
             d="m -11.4844,49 v -8.2344 h -14.9062 v -3.8594 l 15.6875,-22.2656 h 3.4375 v 22.2656 h 4.6406 v 3.8594 H -7.2656 V 49 Z m 0,-12.0938 v -15.5 l -10.75,15.5 z M 1.6953,32.0469 q 0,-6.0938 1.25,-9.8047 1.25,-3.711 3.7266,-5.7266 Q 9.1484,14.5 12.8984,14.5 q 2.7657,0 4.8516,1.1094 2.0859,1.1094 3.4453,3.2109 1.3594,2.1016 2.1328,5.1094 0.7735,3.0078 0.7735,8.1172 0,6.0469 -1.2422,9.7656 -1.2422,3.7187 -3.7188,5.75 -2.4765,2.0313 -6.2422,2.0313 -4.9687,0 -7.8125,-3.5782 Q 1.6953,41.7344 1.6953,32.0469 Z m 4.3281,0 q 0,8.4687 1.9844,11.2656 1.9844,2.7969 4.8906,2.7969 2.9063,0 4.8828,-2.8125 1.9766,-2.8125 1.9766,-11.25 0,-8.4844 -1.9766,-11.2735 -1.9765,-2.789 -4.9296,-2.789 -2.9063,0 -4.6407,2.4687 -2.1875,3.1407 -2.1875,11.5938 z"
             id="path2025" />
        </g>
        <g
           transform="translate(994.0007,909)"
           style="font-size:52.8px;font-family:SansSerif;color-interpolation:linearRGB;fill:#262626;stroke:#262626;color-rendering:optimizeQuality;image-rendering:optimizeQuality;text-rendering:geometricPrecision"
           id="g2031">
          <path
             style="stroke:none"
             d="m -96.3281,49.8281 0.6719,4.125 q -1.9688,0.4063 -3.5313,0.4063 -2.5313,0 -3.9297,-0.8047 -1.3984,-0.8047 -1.9687,-2.1094 -0.5703,-1.3047 -0.5703,-5.4922 V 30.1406 h -3.4063 v -3.625 h 3.4063 v -6.8125 l 4.6406,-2.7812 v 9.5937 h 4.6875 v 3.625 h -4.6875 v 16.0625 q 0,2 0.2422,2.5703 0.2422,0.5704 0.7968,0.9063 0.5547,0.3359 1.6016,0.3359 0.7656,0 2.0469,-0.1875 z m 4.508,-28.4062 v -5.3594 h 4.6563 v 5.3594 z m 0,32.5781 V 26.5156 h 4.6563 V 54 Z m 11.7107,0 V 26.5156 h 4.1563 v 3.8594 q 1.2969,-2.0156 3.4453,-3.25 2.1484,-1.2344 4.8984,-1.2344 3.0469,0 5,1.2735 1.9532,1.2734 2.75,3.539 3.2656,-4.8125 8.5,-4.8125 4.0782,0 6.2813,2.2656 2.2031,2.2657 2.2031,6.9844 V 54 h -4.6406 V 36.6875 q 0,-2.7969 -0.4453,-4.0234 -0.4453,-1.2266 -1.6407,-1.9766 -1.1953,-0.75 -2.8046,-0.75 -2.8907,0 -4.8047,1.9219 -1.9141,1.9218 -1.9141,6.1718 V 54 h -4.6562 V 36.1406 q 0,-3.1094 -1.1407,-4.6562 -1.1406,-1.5469 -3.7343,-1.5469 -1.9688,0 -3.6329,1.0313 -1.664,1.0312 -2.414,3.0234 -0.75,1.9922 -0.75,5.7422 V 54 Z m 62.7797,-8.8438 4.8125,0.5938 q -1.1406,4.2188 -4.2187,6.5469 -3.0782,2.3281 -7.875,2.3281 -6.0313,0 -9.5625,-3.7188 -3.5313,-3.7187 -3.5313,-10.4218 0,-6.9219 3.5703,-10.7578 3.5703,-3.836 9.2735,-3.836 5.5156,0 9.0078,3.7578 3.4922,3.7578 3.4922,10.5547 0,0.4219 -0.0313,1.25 h -20.5 q 0.2656,4.5313 2.5703,6.9375 2.3047,2.4063 5.7422,2.4063 2.5625,0 4.375,-1.3516 1.8125,-1.3515 2.875,-4.2891 z M -32.6266,37.625 h 15.3438 q -0.3125,-3.4688 -1.7656,-5.2031 -2.2188,-2.7031 -5.7657,-2.7031 -3.2031,0 -5.3906,2.1484 -2.1875,2.1484 -2.4219,5.7578 z m 49.3938,27.5312 q -3.8438,-4.875 -6.5156,-11.3906 -2.6719,-6.5156 -2.6719,-13.5 0,-6.1718 2,-11.8125 2.3281,-6.5469 7.1875,-13.0312 h 3.3437 q -3.125,5.375 -4.1406,7.6719 -1.5781,3.5781 -2.4844,7.4531 -1.1093,4.8437 -1.1093,9.7343 0,12.4532 7.7343,24.875 z M 25.4531,54 V 26.5156 h 4.1563 v 3.8594 q 1.2968,-2.0156 3.4453,-3.25 2.1484,-1.2344 4.8984,-1.2344 3.0469,0 5,1.2735 1.9531,1.2734 2.75,3.539 3.2657,-4.8125 8.5,-4.8125 4.0781,0 6.2813,2.2656 2.2031,2.2657 2.2031,6.9844 V 54 H 58.0469 V 36.6875 q 0,-2.7969 -0.4453,-4.0234 -0.4454,-1.2266 -1.6407,-1.9766 -1.1953,-0.75 -2.8047,-0.75 -2.8906,0 -4.8046,1.9219 -1.9141,1.9218 -1.9141,6.1718 V 54 H 41.7812 V 36.1406 q 0,-3.1094 -1.1406,-4.6562 -1.1406,-1.5469 -3.7344,-1.5469 -1.9687,0 -3.6328,1.0313 -1.664,1.0312 -2.414,3.0234 -0.75,1.9922 -0.75,5.7422 V 54 Z m 42.0922,-8.2031 4.6094,-0.7188 q 0.3906,2.7657 2.1641,4.2422 1.7734,1.4766 4.9609,1.4766 3.2031,0 4.7578,-1.3125 1.5547,-1.3125 1.5547,-3.0625 0,-1.5781 -1.375,-2.4844 -0.9531,-0.625 -4.7656,-1.5781 -5.125,-1.2969 -7.1016,-2.2422 -1.9766,-0.9453 -3,-2.6172 -1.0234,-1.6719 -1.0234,-3.6875 0,-1.8281 0.8437,-3.3984 0.8438,-1.5703 2.2813,-2.6016 1.0937,-0.7969 2.9687,-1.3594 1.875,-0.5625 4.0313,-0.5625 3.2343,0 5.6797,0.9375 2.4453,0.9375 3.6093,2.5235 1.1641,1.5859 1.6016,4.2578 l -4.5625,0.625 q -0.2969,-2.125 -1.7891,-3.3203 -1.4922,-1.1953 -4.2109,-1.1953 -3.2031,0 -4.5781,1.0624 -1.375,1.0626 -1.375,2.4844 0,0.9063 0.5781,1.6406 0.5625,0.75 1.7812,1.2344 0.7032,0.2656 4.1094,1.1875 4.9531,1.3281 6.9063,2.1641 1.9531,0.8359 3.0625,2.4453 1.1093,1.6094 1.1093,3.9844 0,2.3281 -1.3593,4.3906 -1.3594,2.0625 -3.9219,3.1875 -2.5625,1.125 -5.7969,1.125 -5.3594,0 -8.164,-2.2266 -2.8047,-2.2265 -3.586,-6.6015 z m 31.3125,19.3593 h -3.3437 q 7.75,-12.4218 7.75,-24.875 0,-4.8593 -1.125,-9.6562 -0.875,-3.875 -2.4532,-7.4531 -1.0156,-2.3281 -4.1718,-7.75 h 3.3437 q 4.8594,6.4843 7.1875,13.0312 2,5.6407 2,11.8125 0,6.9844 -2.6797,13.5 -2.6797,6.5156 -6.5078,11.3906 z"
             id="path2029" />
        </g>
        <g
           style="color-interpolation:linearRGB;fill:#262626;stroke:#262626;stroke-linejoin:round;color-rendering:optimizeQuality;image-rendering:optimizeQuality;text-rendering:geometricPrecision"
           id="g2061">
          <line
             y2="73"
             style="fill:none"
             x1="250"
             x2="250"
             y1="833"
             id="line2033" />
          <line
             y2="73"
             style="fill:none"
             x1="1738"
             x2="1738"
             y1="833"
             id="line2035" />
          <line
             y2="833"
             style="fill:none"
             x1="250"
             x2="264.88"
             y1="833"
             id="line2037" />
          <line
             y2="681"
             style="fill:none"
             x1="250"
             x2="264.88"
             y1="681"
             id="line2039" />
          <line
             y2="529"
             style="fill:none"
             x1="250"
             x2="264.88"
             y1="529"
             id="line2041" />
          <line
             y2="377"
             style="fill:none"
             x1="250"
             x2="264.88"
             y1="377"
             id="line2043" />
          <line
             y2="225"
             style="fill:none"
             x1="250"
             x2="264.88"
             y1="225"
             id="line2045" />
          <line
             y2="73"
             style="fill:none"
             x1="250"
             x2="264.88"
             y1="73"
             id="line2047" />
          <line
             y2="833"
             style="fill:none"
             x1="1738"
             x2="1723.12"
             y1="833"
             id="line2049" />
          <line
             y2="681"
             style="fill:none"
             x1="1738"
             x2="1723.12"
             y1="681"
             id="line2051" />
          <line
             y2="529"
             style="fill:none"
             x1="1738"
             x2="1723.12"
             y1="529"
             id="line2053" />
          <line
             y2="377"
             style="fill:none"
             x1="1738"
             x2="1723.12"
             y1="377"
             id="line2055" />
          <line
             y2="225"
             style="fill:none"
             x1="1738"
             x2="1723.12"
             y1="225"
             id="line2057" />
          <line
             y2="73"
             style="fill:none"
             x1="1738"
             x2="1723.12"
             y1="73"
             id="line2059" />
        </g>
        <g
           transform="translate(236.4,833)"
           style="font-size:48px;font-family:SansSerif;color-interpolation:linearRGB;fill:#262626;stroke:#262626;color-rendering:optimizeQuality;image-rendering:optimizeQuality;text-rendering:geometricPrecision"
           id="g2065">
          <path
             style="stroke:none"
             d="m -25,2.0469 q 0,-6.0938 1.25,-9.8047 1.25,-3.711 3.7266,-5.7266 2.4765,-2.0156 6.2265,-2.0156 2.7657,0 4.8516,1.1094 2.0859,1.1094 3.4453,3.2109 1.3594,2.1016 2.1328,5.1094 0.7734,3.0078 0.7734,8.1172 0,6.0469 -1.2421,9.7656 -1.2422,3.7187 -3.7188,5.75 -2.4765,2.0313 -6.2422,2.0313 -4.9687,0 -7.8125,-3.5782 Q -25,11.7344 -25,2.0469 Z m 4.3281,0 q 0,8.4687 1.9844,11.2656 1.9844,2.7969 4.8906,2.7969 2.9063,0 4.8828,-2.8125 1.9766,-2.8125 1.9766,-11.25 0,-8.4844 -1.9766,-11.2735 -1.9765,-2.789 -4.9297,-2.789 -2.9062,0 -4.6406,2.4687 -2.1875,3.1407 -2.1875,11.5938 z"
             id="path2063" />
        </g>
        <g
           transform="translate(236.4,681)"
           style="font-size:48px;font-family:SansSerif;color-interpolation:linearRGB;fill:#262626;stroke:#262626;color-rendering:optimizeQuality;image-rendering:optimizeQuality;text-rendering:geometricPrecision"
           id="g2069">
          <path
             style="stroke:none"
             d="m -65,2.0469 q 0,-6.0938 1.25,-9.8047 1.25,-3.711 3.7266,-5.7266 2.4765,-2.0156 6.2265,-2.0156 2.7657,0 4.8516,1.1094 2.0859,1.1094 3.4453,3.2109 1.3594,2.1016 2.1328,5.1094 0.7734,3.0078 0.7734,8.1172 0,6.0469 -1.2421,9.7656 -1.2422,3.7187 -3.7188,5.75 -2.4765,2.0313 -6.2422,2.0313 -4.9687,0 -7.8125,-3.5782 Q -65,11.7344 -65,2.0469 Z m 4.3281,0 q 0,8.4687 1.9844,11.2656 1.9844,2.7969 4.8906,2.7969 2.9063,0 4.8828,-2.8125 1.9766,-2.8125 1.9766,-11.25 0,-8.4844 -1.9766,-11.2735 -1.9765,-2.789 -4.9297,-2.789 -2.9062,0 -4.6406,2.4687 -2.1875,3.1407 -2.1875,11.5938 z M -35.9453,19 v -4.8125 h 4.8125 V 19 Z M -2.7969,14.9375 V 19 h -22.7187 q -0.0469,-1.5312 0.5,-2.9375 0.8594,-2.3125 2.7734,-4.5625 1.9141,-2.25 5.5234,-5.2031 5.5938,-4.5938 7.5626,-7.2813 1.9687,-2.6875 1.9687,-5.0781 0,-2.5 -1.7891,-4.2266 -1.789,-1.7265 -4.6796,-1.7265 -3.0469,0 -4.875,1.8281 -1.8282,1.8281 -1.8438,5.0625 l -4.3438,-0.4375 q 0.4532,-4.8594 3.3594,-7.3984 2.9063,-2.5391 7.7969,-2.5391 4.9531,0 7.8359,2.7422 2.8828,2.7422 2.8828,6.789 0,2.0626 -0.8437,4.0547 -0.8437,1.9922 -2.8047,4.1953 -1.9609,2.2032 -6.5078,6.0469 -3.7969,3.1875 -4.875,4.3281 -1.0781,1.1407 -1.7812,2.2813 z"
             id="path2067" />
        </g>
        <g
           transform="translate(236.4,529)"
           style="font-size:48px;font-family:SansSerif;color-interpolation:linearRGB;fill:#262626;stroke:#262626;color-rendering:optimizeQuality;image-rendering:optimizeQuality;text-rendering:geometricPrecision"
           id="g2073">
          <path
             style="stroke:none"
             d="m -65,2.0469 q 0,-6.0938 1.25,-9.8047 1.25,-3.711 3.7266,-5.7266 2.4765,-2.0156 6.2265,-2.0156 2.7657,0 4.8516,1.1094 2.0859,1.1094 3.4453,3.2109 1.3594,2.1016 2.1328,5.1094 0.7734,3.0078 0.7734,8.1172 0,6.0469 -1.2421,9.7656 -1.2422,3.7187 -3.7188,5.75 -2.4765,2.0313 -6.2422,2.0313 -4.9687,0 -7.8125,-3.5782 Q -65,11.7344 -65,2.0469 Z m 4.3281,0 q 0,8.4687 1.9844,11.2656 1.9844,2.7969 4.8906,2.7969 2.9063,0 4.8828,-2.8125 1.9766,-2.8125 1.9766,-11.25 0,-8.4844 -1.9766,-11.2735 -1.9765,-2.789 -4.9297,-2.789 -2.9062,0 -4.6406,2.4687 -2.1875,3.1407 -2.1875,11.5938 z M -35.9453,19 v -4.8125 h 4.8125 V 19 Z m 24.4922,0 V 10.7656 H -26.3594 V 6.9062 l 15.6875,-22.2656 h 3.4375 V 6.9062 h 4.6406 v 3.8594 H -7.2344 V 19 Z m 0,-12.0938 v -15.5 l -10.75,15.5 z"
             id="path2071" />
        </g>
        <g
           transform="translate(236.4,377)"
           style="font-size:48px;font-family:SansSerif;color-interpolation:linearRGB;fill:#262626;stroke:#262626;color-rendering:optimizeQuality;image-rendering:optimizeQuality;text-rendering:geometricPrecision"
           id="g2077">
          <path
             style="stroke:none"
             d="m -65,2.0469 q 0,-6.0938 1.25,-9.8047 1.25,-3.711 3.7266,-5.7266 2.4765,-2.0156 6.2265,-2.0156 2.7657,0 4.8516,1.1094 2.0859,1.1094 3.4453,3.2109 1.3594,2.1016 2.1328,5.1094 0.7734,3.0078 0.7734,8.1172 0,6.0469 -1.2421,9.7656 -1.2422,3.7187 -3.7188,5.75 -2.4765,2.0313 -6.2422,2.0313 -4.9687,0 -7.8125,-3.5782 Q -65,11.7344 -65,2.0469 Z m 4.3281,0 q 0,8.4687 1.9844,11.2656 1.9844,2.7969 4.8906,2.7969 2.9063,0 4.8828,-2.8125 1.9766,-2.8125 1.9766,-11.25 0,-8.4844 -1.9766,-11.2735 -1.9765,-2.789 -4.9297,-2.789 -2.9062,0 -4.6406,2.4687 -2.1875,3.1407 -2.1875,11.5938 z M -35.9453,19 v -4.8125 h 4.8125 V 19 Z M -3.0781,-6.9531 -7.2812,-6.625 q -0.5626,-2.4844 -1.5938,-3.6094 -1.7031,-1.7968 -4.2188,-1.7968 -2.0156,0 -3.5312,1.125 -2,1.4531 -3.1484,4.2421 -1.1485,2.7891 -1.1954,7.9453 1.5313,-2.3281 3.7344,-3.4531 2.2032,-1.125 4.6094,-1.125 4.2188,0 7.1875,3.1094 2.9687,3.1094 2.9687,8.0313 0,3.2343 -1.3984,6.0078 -1.3984,2.7734 -3.8359,4.2578 -2.4375,1.4844 -5.5313,1.4844 -5.2656,0 -8.5937,-3.8829 -3.3281,-3.8828 -3.3281,-12.789 0,-9.9688 3.6718,-14.4844 3.2188,-3.9375 8.6563,-3.9375 4.0469,0 6.6406,2.2734 2.5937,2.2735 3.1094,6.2735 z M -20.3125,7.8594 q 0,2.1875 0.9297,4.1797 0.9297,1.9921 2.5937,3.0312 1.6641,1.0391 3.4922,1.0391 2.6719,0 4.5938,-2.1563 1.9219,-2.1562 1.9219,-5.8593 0,-3.5626 -1.8985,-5.6094 -1.8984,-2.0469 -4.7891,-2.0469 -2.8593,0 -4.8515,2.0469 -1.9922,2.0468 -1.9922,5.375 z"
             id="path2075" />
        </g>
        <g
           transform="translate(236.4,225)"
           style="font-size:48px;font-family:SansSerif;color-interpolation:linearRGB;fill:#262626;stroke:#262626;color-rendering:optimizeQuality;image-rendering:optimizeQuality;text-rendering:geometricPrecision"
           id="g2081">
          <path
             style="stroke:none"
             d="m -65,2.0469 q 0,-6.0938 1.25,-9.8047 1.25,-3.711 3.7266,-5.7266 2.4765,-2.0156 6.2265,-2.0156 2.7657,0 4.8516,1.1094 2.0859,1.1094 3.4453,3.2109 1.3594,2.1016 2.1328,5.1094 0.7734,3.0078 0.7734,8.1172 0,6.0469 -1.2421,9.7656 -1.2422,3.7187 -3.7188,5.75 -2.4765,2.0313 -6.2422,2.0313 -4.9687,0 -7.8125,-3.5782 Q -65,11.7344 -65,2.0469 Z m 4.3281,0 q 0,8.4687 1.9844,11.2656 1.9844,2.7969 4.8906,2.7969 2.9063,0 4.8828,-2.8125 1.9766,-2.8125 1.9766,-11.25 0,-8.4844 -1.9766,-11.2735 -1.9765,-2.789 -4.9297,-2.789 -2.9062,0 -4.6406,2.4687 -2.1875,3.1407 -2.1875,11.5938 z M -35.9453,19 v -4.8125 h 4.8125 V 19 Z M -18.4844,0.3594 q -2.625,-0.9532 -3.8906,-2.7344 -1.2656,-1.7812 -1.2656,-4.2656 0,-3.75 2.6953,-6.3047 2.6953,-2.5547 7.1797,-2.5547 4.5,0 7.2422,2.6094 2.7422,2.6094 2.7422,6.3594 0,2.3906 -1.2579,4.164 -1.2578,1.7734 -3.8047,2.7266 3.1563,1.0312 4.8126,3.3281 1.6562,2.2969 1.6562,5.4844 0,4.4062 -3.1172,7.414 -3.1172,3.0079 -8.2109,3.0079 -5.0781,0 -8.1953,-3.0157 -3.1172,-3.0156 -3.1172,-7.5156 0,-3.3594 1.6953,-5.6172 1.6953,-2.2578 4.8359,-3.0859 z m -0.8437,-7.1406 q 0,2.4374 1.5703,3.9843 1.5703,1.5469 4.0859,1.5469 2.4375,0 3.9922,-1.5391 1.5547,-1.539 1.5547,-3.7578 0,-2.3281 -1.6016,-3.9062 -1.6015,-1.5781 -3.9922,-1.5781 -2.4218,0 -4.0156,1.5468 -1.5937,1.5469 -1.5937,3.7032 z m -1.3594,15.8593 q 0,1.8125 0.8594,3.5 0.8593,1.6875 2.5469,2.6094 1.6874,0.9219 3.625,0.9219 3.0312,0 5,-1.9453 1.9687,-1.9453 1.9687,-4.9453 0,-3.0469 -2.0313,-5.0391 -2.0312,-1.9922 -5.0781,-1.9922 -2.9687,0 -4.9297,1.9687 -1.9609,1.9688 -1.9609,4.9219 z"
             id="path2079" />
        </g>
        <g
           transform="translate(236.4,73)"
           style="font-size:48px;font-family:SansSerif;color-interpolation:linearRGB;fill:#262626;stroke:#262626;color-rendering:optimizeQuality;image-rendering:optimizeQuality;text-rendering:geometricPrecision"
           id="g2085">
          <path
             style="stroke:none"
             d="m -9.1094,19 h -4.2187 V -7.8906 q -1.5313,1.4531 -4,2.9062 -2.4688,1.4532 -4.4375,2.1875 V -6.875 q 3.5312,-1.6719 6.1797,-4.0391 2.6484,-2.3671 3.7578,-4.5859 h 2.7187 z"
             id="path2083" />
        </g>
        <g
           transform="rotate(-90,308.1998,144.7998)"
           style="font-size:52.8px;font-family:SansSerif;color-interpolation:linearRGB;fill:#262626;stroke:#262626;color-rendering:optimizeQuality;image-rendering:optimizeQuality;text-rendering:geometricPrecision"
           id="g2089">
          <path
             style="stroke:none"
             d="m -40.625,-24.1875 4.7344,-0.4219 q 0.3437,2.8594 1.5703,4.6797 1.2265,1.8203 3.8203,2.9453 2.5938,1.125 5.8281,1.125 2.8594,0 5.0625,-0.8515 2.2032,-0.8516 3.2813,-2.3438 1.0781,-1.4922 1.0781,-3.2422 0,-1.7812 -1.0391,-3.1172 -1.039,-1.3359 -3.414,-2.2421 -1.5313,-0.5938 -6.7578,-1.8516 -5.2266,-1.2578 -7.3203,-2.3672 -2.7188,-1.4219 -4.0547,-3.5312 -1.336,-2.1094 -1.336,-4.7188 0,-2.875 1.6328,-5.375 1.6329,-2.5 4.7657,-3.7891 3.1328,-1.289 6.9609,-1.289 4.2187,0 7.4375,1.3515 3.2188,1.3516 4.9531,3.9922 1.7344,2.6406 1.8594,5.9844 l -4.8125,0.3594 q -0.3906,-3.5938 -2.625,-5.4297 -2.2344,-1.8359 -6.6094,-1.8359 -4.5468,0 -6.6328,1.664 -2.0859,1.6641 -2.0859,4.0234 0,2.0469 1.4687,3.3594 1.4532,1.3282 7.5703,2.711 6.1172,1.3828 8.3985,2.414 3.3125,1.5313 4.8906,3.875 1.5781,2.3438 1.5781,5.3906 0,3.0313 -1.7343,5.711 -1.7344,2.6797 -4.9766,4.164 -3.2422,1.4844 -7.3047,1.4844 -5.1563,0 -8.6406,-1.5 -3.4844,-1.5 -5.461,-4.5156 -1.9765,-3.0156 -2.0859,-6.8125 z M 4.5953,-0.8438 q -3.8437,-4.875 -6.5156,-11.3906 -2.6719,-6.5156 -2.6719,-13.5 0,-6.1718 2,-11.8125 2.3281,-6.5469 7.1875,-13.0312 h 3.3438 q -3.125,5.375 -4.1407,7.6719 -1.5781,3.5781 -2.4843,7.4531 -1.1094,4.8437 -1.1094,9.7343 0,12.4532 7.7344,24.875 z m 18.8578,-15.3281 0.6719,4.125 q -1.9688,0.4063 -3.5312,0.4063 -2.5313,0 -3.9297,-0.8047 -1.3985,-0.8047 -1.9688,-2.1094 -0.5703,-1.3047 -0.5703,-5.4922 v -15.8125 h -3.4062 v -3.625 h 3.4062 v -6.8125 l 4.6406,-2.7812 v 9.5937 h 4.6875 v 3.625 h -4.6875 v 16.0625 q 0,2 0.2422,2.5703 0.2422,0.5704 0.7969,0.9063 0.5547,0.3359 1.6015,0.3359 0.7657,0 2.0469,-0.1875 z m 7.5393,15.3281 h -3.3437 q 7.75,-12.4218 7.75,-24.875 0,-4.8593 -1.125,-9.6562 -0.875,-3.875 -2.4531,-7.4531 -1.0157,-2.3281 -4.1719,-7.75 h 3.3437 q 4.8594,6.4843 7.1875,13.0312 2,5.6407 2,11.8125 0,6.9844 -2.6796,13.5 -2.6797,6.5156 -6.5079,11.3906 z"
             id="path2087" />
        </g>
        <g
           style="color-interpolation:linearRGB;fill:#332288;stroke:#332288;stroke-width:4;stroke-linecap:butt;stroke-linejoin:round;color-rendering:optimizeQuality;image-rendering:optimizeQuality;text-rendering:geometricPrecision"
           id="g2107">
          <path
             d="m 250,632.563 1.86,-0.1304 1.86,-0.1192 1.86,-0.1124 1.86,-0.1087 1.86,-0.1077 1.86,-0.1086 1.86,-0.1109 1.86,-0.1145 1.86,-0.1191 1.86,-0.1246 1.86,-0.1309 1.86,-0.1377 1.86,-0.1453 1.86,-0.1535 1.86,-0.1623 1.86,-0.1716 1.86,-0.1819 1.86,-0.1925 1.86,-0.204 1.86,-0.2163 1.86,-0.2291 1.86,-0.2431 1.86,-0.2577 1.86,-0.2735 1.86,-0.2901 1.86,-0.3079 1.86,-0.3268 1.86,-0.347 1.86,-0.3684 1.86,-0.3914 1.86,-0.4159 1.86,-0.4419 1.86,-0.47 1.86,-0.4997 1.86,-0.5316 1.86,-0.5658 1.86,-0.6023 1.86,-0.6415 1.86,-0.6836 1.86,-0.7286 1.86,-0.7772 1.86,-0.8293 1.86,-0.8855 1.86,-0.9459 1.86,-1.0112 1.86,-1.0816 1.86,-1.1579 1.86,-1.2404 1.86,-1.3299 1.86,-1.4271 1.86,-1.5328 1.86,-1.6481 1.86,-1.7738 1.86,-1.9112 1.86,-2.062 1.86,-2.2274 1.86,-2.4096 1.86,-2.6105 1.86,-2.8329 1.86,-3.0795 1.86,-3.3539 1.86,-3.6602 1.86,-4.0031 1.86,-4.3886 1.86,-4.8235 1.86,-5.316 1.86,-5.8764 1.86,-6.5169 1.86,-7.2525 1.86,-8.1017 1.86,-9.0872 1.86,-10.2376 1.86,-11.588 1.86,-13.1823 1.86,-15.0747 1.86,-17.3316 1.86,-20.032 1.86,-23.2647 1.86,-27.1164 1.86,-31.6405 1.86,-36.781 1.86,-42.21 1.86,-47.022 1.86,-49.3139 1.86,-46.1297 1.86,-35.2119 1.86,-19.2446 1.86,-6.3938 1.86,-1.0853 1.86,-0.0792 1.86,-0.002 h 1.86 1.86 1.86 1.86 1.86 1.86 1.86 1.86 1.86 1.86 1.86 1.86 1.86 1.86 1.86 1.86 1.86 1.86 1.86 1.86 1.86 1.86 1.86 1.86 1.86 1.86 1.86 1.86 1.86 1.86 1.86 1.86 1.86 1.86 1.86 1.86 1.86 1.86 1.86 1.86 1.86 1.86 1.86 1.86 1.86 1.86 1.86 1.86 1.86 1.86 1.86 1.86 1.86 1.86 1.86 1.86 1.86 1.86 1.86 1.86 1.86 1.86 1.86 1.86 1.86 1.86 1.86 1.86 1.86 1.86 1.86 1.86 1.86 1.86 1.86 1.86 1.86 1.86 1.86 1.86 1.86 1.86 1.86 1.86 1.86 1.86 1.86 1.86 1.86 1.86 1.86 1.86 1.86 1.86 1.86 1.86 1.86 1.86 1.86 1.86 1.86 1.86 1.86 1.86 1.86 1.86 1.86 1.86 1.86 1.86 1.86 1.86 1.86 1.86 1.86 1.86 1.86 1.86 1.86 1.86 1.86 1.86 1.86 1.86 1.86 1.86 1.86 1.86 1.86 1.86 1.86 1.86 1.86 1.86 1.86 1.86 1.86 1.86 1.86 1.86 1.86 1.86 1.86 1.86 1.86 1.86 1.86 1.86 1.86 1.86 1.86 1.86 1.86 1.86 1.86 1.86 1.86 1.86 1.86 1.86 1.86 1.86 1.86 1.86 1.86 1.86 1.86 1.86 1.86 1.86 1.86 1.86 1.86 1.86 1.86 1.86 1.86 1.86 1.86 1.86 1.86 1.86 1.86 1.86 1.86 1.86 1.86 1.86 1.86 1.86 1.86 1.86 1.86 1.86 1.86 1.86 1.86 1.86 1.86 1.86 1.86 1.86 1.86 1.86 1.86 1.86 1.86 1.86 1.86 1.86 1.86 1.86 1.86 1.86 1.86 1.86 1.86 1.86 1.86 1.86 1.86 1.86 1.86 1.86 1.86 1.86 1.86 1.86 1.86 1.86 1.86 1.86 1.86 1.86 1.86 1.86 1.86 1.86 1.86 1.86 1.86 1.86 1.8601 1.8599 1.86 1.86 1.86 1.86 1.86 1.8599"
             style="fill:none;fill-rule:evenodd"
             id="path2091" />
          <path
             d="m 250,589.7899 1.86,-0.1338 1.86,-0.115 1.86,-0.1051 1.86,-0.1018 1.86,-0.1031 1.86,-0.1081 1.86,-0.1162 1.86,-0.1267 1.86,-0.1397 1.86,-0.1551 1.86,-0.1726 1.86,-0.1929 1.86,-0.2156 1.86,-0.2415 1.86,-0.2706 1.86,-0.3032 1.86,-0.3401 1.86,-0.3815 1.86,-0.4281 1.86,-0.4806 1.86,-0.5397 1.86,-0.6063 1.86,-0.6814 1.86,-0.7662 1.86,-0.862 1.86,-0.9704 1.86,-1.0931 1.86,-1.2322 1.86,-1.3902 1.86,-1.5699 1.86,-1.7748 1.86,-2.0087 1.86,-2.2766 1.86,-2.5839 1.86,-2.9376 1.86,-3.3461 1.86,-3.8195 1.86,-4.3701 1.86,-5.0138 1.86,-5.7695 1.86,-6.6614 1.86,-7.7205 1.86,-8.9857 1.86,-10.5076 1.86,-12.3507 1.86,-14.5988 1.86,-17.3591 1.86,-20.7659 1.86,-24.9799 1.86,-30.1706 1.86,-36.4532 1.86,-43.7139 1.86,-51.1873 1.86,-56.6422 1.86,-55.5756 1.86,-43.0706 1.86,-21.9143 1.86,-5.7051 1.86,-0.5686 1.86,-0.0155 1.86,-1e-4 h 1.86 1.86 1.86 1.86 1.86 1.86 1.86 1.86 1.86 1.86 1.86 1.86 1.86 1.86 1.86 1.86 1.86 1.86 1.86 1.86 1.86 1.86 1.86 1.86 1.86 1.86 1.86 1.86 1.86 1.86 1.86 1.86 1.86 1.86 1.86 1.86 1.86 1.86 1.86 1.86 1.86 1.86 1.86 1.86 1.86 1.86 1.86 1.86 1.86 1.86 1.86 1.86 1.86 1.86 1.86 1.86 1.86 1.86 1.86 1.86 1.86 1.86 1.86 1.86 1.86 1.86 1.86 1.86 1.86 1.86 1.86 1.86 1.86 1.86 1.86 1.86 1.86 1.86 1.86 1.86 1.86 1.86 1.86 1.86 1.86 1.86 1.86 1.86 1.86 1.86 1.86 1.86 1.86 1.86 1.86 1.86 1.86 1.86 1.86 1.86 1.86 1.86 1.86 1.86 1.86 1.86 1.86 1.86 1.86 1.86 1.86 1.86 1.86 1.86 1.86 1.86 1.86 1.86 1.86 1.86 1.86 1.86 1.86 1.86 1.86 1.86 1.86 1.86 1.86 1.86 1.86 1.86 1.86 1.86 1.86 1.86 1.86 1.86 1.86 1.86 1.86 1.86 1.86 1.86 1.86 1.86 1.86 1.86 1.86 1.86 1.86 1.86 1.86 1.86 1.86 1.86 1.86 1.86 1.86 1.86 1.86 1.86 1.86 1.86 1.86 1.86 1.86 1.86 1.86 1.86 1.86 1.86 1.86 1.86 1.86 1.86 1.86 1.86 1.86 1.86 1.86 1.86 1.86 1.86 1.86 1.86 1.86 1.86 1.86 1.86 1.86 1.86 1.86 1.86 1.86 1.86 1.86 1.86 1.86 1.86 1.86"
             style="fill:none;fill-rule:evenodd"
             id="path2093" />
          <path
             d="m 250,574.9954 1.86,-0.0779 1.86,-0.009 1.86,0.0458 1.86,0.0938 1.86,0.1398 1.86,0.1883 1.86,0.2419 1.86,0.3042 1.86,0.3783 1.86,0.4675 1.86,0.5759 1.86,0.7077 1.86,0.8685 1.86,1.0643 1.86,1.3027 1.86,1.5924 1.86,1.9432 1.86,2.3665 1.86,2.8755 1.86,3.4836 1.86,4.205 1.86,5.0535 1.86,6.0403 1.86,7.1714 1.86,8.445 1.86,9.8453 1.86,11.3386 1.86,12.8662 1.86,14.3427 1.86,15.6533 1.86,16.663 1.86,17.2321 1.86,17.2419 1.86,16.6264 1.86,15.3995 1.86,13.6662 1.86,11.6088 1.86,9.4463 1.86,7.3829 1.86,5.5676 1.86,4.0744 1.86,2.9121 1.86,2.0456 1.86,1.4205 1.86,0.9799 1.86,0.674 1.86,0.464 1.86,0.3201 1.86,0.2219 1.86,0.1546 1.86,0.1084 1.86,0.0766 1.86,0.0544 1.86,0.039 1.86,0.0282 1.86,0.0205 1.86,0.015 1.86,0.0111 1.86,0.008 1.86,0.006 1.86,0.005 1.86,0.004 1.86,0.003 1.86,0.002 1.86,0.002 1.86,0.001 1.86,10e-4 1.86,8e-4 1.86,6e-4 1.86,5e-4 1.86,3e-4 1.86,4e-4 1.86,3e-4 1.86,10e-5 1.86,2e-4 1.86,2e-4 1.86,10e-5 1.86,1e-4 1.86,10e-5 1.86,10e-5 h 1.86 1.86 l 1.86,10e-5 1.86,1e-4 h 1.86 1.86 1.86 1.86 l 1.86,10e-5 h 1.86 1.86 1.86 1.86 1.86 1.86 1.86 1.86 1.86 1.86 1.86 1.86 1.86 1.86 1.86 1.86 1.86 1.86 1.86 1.86 1.86 1.86 1.86 l 1.86,10e-5 h 1.86 1.86 1.86 1.86 1.86 1.86 1.86 1.86 1.86 1.86 1.86 1.86 1.86 1.86 1.86 1.86 1.86 1.86 1.86 1.86 1.86 1.86 1.86 1.86 1.86 1.86 1.86 1.86 1.86 1.86 1.86 1.86 1.86 1.86 1.86 1.86 1.86 1.86 1.86 1.86 1.86 1.86 1.86 1.86 1.86 1.86 1.86 1.86 1.86 1.86 1.86 1.86 1.86 1.86 1.86 1.86 1.86 1.86 1.86 1.86 1.86 1.86 1.86 1.86 1.86 1.86 1.86 1.86 l 1.86,-10e-5 h 1.86 1.86 1.86 1.86 1.86 1.86 1.86 1.86 1.86 1.86 1.86 1.86 1.86 1.86 1.86 1.86 1.86 1.86 1.86 1.86 1.86 1.86 1.86 1.86 1.86 1.86 1.86 1.86 1.86 1.86 1.86 1.86 1.86 1.86 1.86 1.86 1.86 1.86 1.86 1.86 1.86 1.86 1.86 1.86 1.86 1.86 1.86 1.86 1.86 1.86 1.86 1.86 1.86 1.86 1.86 1.86 1.86 l 1.86,-10e-5 h 1.86 1.86 1.86 1.86 1.86 1.86 1.86 1.86 1.86 1.86 1.86 1.86 1.86 1.86 1.86 1.86 1.86 1.86 l 1.86,-1e-4 h 1.86 1.86 1.86 1.86 1.86 1.86 l 1.86,-10e-5 h 1.86 1.86 1.86 1.86 1.86 1.86 1.86 1.86 1.86 l 1.86,-10e-5 h 1.86 1.86 1.86 1.86 1.86 1.86 1.86 l 1.86,-10e-5 h 1.86 1.86 l 1.86,-1e-4 h 1.86 1.86 1.86 1.86 1.86 l 1.86,-10e-5 h 1.86 1.86 L 800.56,833 h 1.86 1.86 1.86 1.86 l 1.86,-10e-5 h 1.86 1.86 1.86 l 1.86,-10e-5 h 1.86 l 1.86,-1e-4 h 1.86 1.86 l 1.86,-10e-5 h 1.86 1.86 1.86 l 1.86,-10e-5 1.86,-10e-5 h 1.86 1.86 l 1.86,-1e-4 h 1.86 1.86 l 1.86,-10e-5 1.86,-10e-5 h 1.86 l 1.86,-10e-5 h 1.86 l 1.86,-10e-5 h 1.86 l 1.86,-1e-4 h 1.86 l 1.86,-10e-5 1.86,-10e-5 h 1.86 l 1.86,-10e-5 h 1.8601 l 1.8599,-2e-4 h 1.86 l 1.86,-10e-5 h 1.86 l 1.86,-10e-5 1.86,-10e-5 1.8599,-1e-4 1.8601,-10e-5 1.86,-10e-5 h 1.86 l 1.86,-2e-4 h 1.86 l 1.86,-10e-5 1.86,-10e-5 1.86,-10e-5 1.86,-10e-5 1.86,-1e-4 1.86,-10e-5 1.86,-2e-4 h 1.86 l 1.86,-1e-4 1.86,-2e-4 1.86,-10e-5 1.86,-10e-5 1.8601,-1e-4 1.8599,-10e-5 1.86,-2e-4 1.86,-10e-5 1.86,-2e-4 1.86,-10e-5 1.86,-10e-5 1.8599,-2e-4 1.8601,-10e-5 1.86,-2e-4 1.86,-2e-4 1.86,-10e-5 1.86,-2e-4 1.86,-2e-4 1.86,-2e-4 1.86,-1e-4 1.86,-2e-4 1.86,-2e-4 1.86,-2e-4 1.86,-2e-4 1.86,-2e-4 1.86,-2e-4 1.86,-2e-4 1.86,-2e-4 1.86,-2e-4 1.8601,-3e-4 1.8599,-2e-4 1.86,-2e-4 1.86,-3e-4 1.86,-2e-4 1.86,-3e-4 1.86,-2e-4 1.8599,-3e-4 1.8601,-3e-4 1.86,-2e-4 1.86,-3e-4 1.86,-3e-4 1.86,-3e-4 1.86,-3e-4 1.86,-3e-4 1.86,-3e-4 1.86,-3e-4 1.86,-4e-4 1.86,-3e-4 1.86,-4e-4 1.86,-3e-4 1.86,-4e-4 1.86,-3e-4 1.86,-5e-4 1.86,-3e-4 1.8601,-4e-4 1.8599,-4e-4 1.86,-4e-4 1.86,-5e-4 1.86,-4e-4 1.86,-4e-4 1.86,-4e-4 1.8599,-5e-4 1.8601,-5e-4 1.86,-5e-4 1.8601,-4e-4 1.8599,-6e-4 1.8599,-5e-4 1.8601,-5e-4 1.86,-5e-4 1.86,-6e-4 1.86,-5e-4 1.86,-6e-4 1.86,-6e-4 1.86,-6e-4 1.8601,-6e-4 1.8599,-6e-4 1.8599,-6e-4 1.8601,-7e-4 1.86,-6e-4 1.86,-7e-4 1.86,-7e-4 1.86,-7e-4 1.8601,-7e-4 1.8598,-7e-4 1.8601,-8e-4 1.86,-7e-4 1.86,-8e-4 1.86,-8e-4 1.86,-8e-4 1.8601,-8e-4 1.8599,-8e-4 1.8599,-9e-4 1.8601,-9e-4 1.86,-9e-4 1.86,-9e-4 1.86,-9e-4 1.86,-10e-4 1.86,-9e-4 1.86,-10e-4 1.8601,-10e-4 1.8599,-10e-4 1.8599,-0.001 1.8601,-10e-4 1.86,-10e-4 1.86,-10e-4 1.86,-10e-4 1.86,-0.001 1.8601,-10e-4 1.8598,-10e-4 1.8601,-10e-4 1.86,-10e-4 1.86,-0.001 1.86,-10e-4 1.86,-10e-4 1.8601,-10e-4 1.8599,-10e-4 1.8599,-0.001 1.8601,-10e-4 1.86,-10e-4 1.86,-0.002 1.86,-0.001 1.86,-0.002 1.86,-0.002 1.86,-0.002 1.8601,-0.002 1.8599,-0.002 1.8599,-0.002 1.8601,-0.002 1.86,-0.002 1.86,-0.002 1.86,-0.002 1.86,-0.002 1.8601,-0.002 1.8598,-0.002 1.8601,-0.002 1.86,-0.002 1.86,-0.002 1.86,-0.002 1.86,-0.002 1.8601,-0.002 1.8599,-0.002 1.8599,-0.002 1.8601,-0.002 1.86,-0.002 1.86,-0.002 1.86,-0.003 1.86,-0.002 1.86,-0.003 1.86,-0.003 1.8601,-0.003 1.8599,-0.003 1.8599,-0.003 1.8601,-0.003 1.86,-0.003 1.86,-0.003 1.86,-0.003 1.86,-0.003 1.8601,-0.003 1.8598,-0.003 1.8601,-0.003 1.86,-0.003 1.86,-0.003 1.86,-0.004 1.86,-0.003 1.8601,-0.004 1.8599,-0.004 1.8599,-0.004 1.8601,-0.004 1.86,-0.004 1.86,-0.004 1.86,-0.004 1.86,-0.004 1.86,-0.004 1.86,-0.004 1.8601,-0.004 1.8599,-0.004 1.8599,-0.005 1.8601,-0.005 1.86,-0.005 1.86,-0.005 1.86,-0.005 1.86,-0.005 1.8601,-0.005 1.8598,-0.005 1.8601,-0.005 1.86,-0.005 1.86,-0.005 1.86,-0.006 1.86,-0.006 1.8601,-0.006 1.8599,-0.006 1.8599,-0.006 1.8601,-0.006 1.86,-0.006 1.86,-0.006 1.86,-0.007 1.86,-0.007 1.86,-0.007 1.86,-0.007 1.8601,-0.007 1.8599,-0.007 1.8599,-0.007 1.8601,-0.008 1.86,-0.008 1.86,-0.008 1.86,-0.008 1.86,-0.008 1.8601,-0.009 1.8598,-0.009 1.8601,-0.009 1.86,-0.009 1.86,-0.009 1.86,-0.009 1.86,-0.01 1.8601,-0.01 1.8599,-0.01 1.8599,-0.0103 1.8601,-0.0104 1.86,-0.0108 1.86,-0.0109 1.86,-0.0112 1.86,-0.0114 1.86,-0.0118 1.86,-0.0119 1.8601,-0.0123 1.8599,-0.0125 1.8599,-0.0128 1.8601,-0.0131 1.86,-0.0134 1.86,-0.0137 1.86,-0.0141 1.86,-0.0144 1.8601,-0.0147 1.8598,-0.0151 1.8601,-0.0154 1.86,-0.0158 1.86,-0.0162 1.86,-0.0166 1.86,-0.017 1.8601,-0.0174 1.8599,-0.0178 1.8599,-0.0184 1.8601,-0.0187 1.86,-0.0193 1.86,-0.0197 1.86,-0.0203 1.86,-0.0207 1.86,-0.0214 1.86,-0.0218 1.8601,-0.0225 1.8599,-0.0231 1.8599,-0.0237 1.8601,-0.0244 1.86,-0.0249 1.86,-0.0258 1.86,-0.0264 1.86,-0.0272 1.8601,-0.0279 1.8598,-0.0288 1.8601,-0.0296 1.86,-0.0304 1.86,-0.0314 1.86,-0.0323 1.86,-0.0333 1.8601,-0.0343 1.8599,-0.0353 1.8599,-0.0365 1.8601,-0.0376 1.86,-0.0388 1.86,-0.04 1.86,-0.0414 1.86,-0.0427 1.86,-0.0442 1.86,-0.0456 1.8601,-0.0472 1.8599,-0.0488 1.8599,-0.0506 1.8601,-0.0523 1.86,-0.0542 1.86,-0.0561 1.86,-0.0583 1.86,-0.0603 1.8601,-0.0628 1.8598,-0.065 1.8601,-0.0677 1.86,-0.0703 1.86,-0.0732 1.86,-0.0761 1.8601,-0.0792 1.86,-0.0826 1.8599,-0.0861 1.8599,-0.0899 1.86,-0.0938 1.8601,-0.098 1.86,-0.1026 1.86,-0.1072 1.86,-0.1124 1.86,-0.1178 1.8601,-0.1235 1.86,-0.1297 1.8599,-0.1364 1.8599,-0.1435 1.86,-0.151 1.8601,-0.1593 1.86,-0.1681 1.86,-0.1776 1.86,-0.1879 1.8599,-0.199 1.8602,-0.211 1.8599,-0.2241 1.86,-0.2384 1.86,-0.2539 1.86,-0.2709 1.8601,-0.2893 1.86,-0.3098 1.8599,-0.3321 1.8599,-0.3568 1.86,-0.3841 1.8601,-0.4143 1.86,-0.4479 1.86,-0.4854 1.86,-0.5272 1.86,-0.5742 1.8601,-0.627 1.86,-0.6868 1.8599,-0.7545 1.8599,-0.8315 1.86,-0.9197 1.8601,-1.0208 1.86,-1.1374 1.86,-1.2726 1.86,-1.4298 1.8599,-1.6139 1.8602,-1.8303 1.8599,-2.0861 1.86,-2.3899 1.86,-2.7526 1.86,-3.1876 1.8601,-3.7112 1.86,-4.3432 1.8599,-5.107 1.8599,-6.0288 1.86,-7.1359 1.8601,-8.4514 1.86,-9.9859 1.86,-11.7218 1.86,-13.5912 1.86,-15.4513 1.8601,-17.0684 1.86,-18.1367 1.8599,-18.3525 1.8599,-17.5357 1.86,-15.7383 1.8601,-13.2521 1.86,-10.4951 1.86,-7.85 1.86,-5.5577 1.8599,-3.7045 1.8602,-2.2665 1.8599,-1.1656 1.86,-0.311 1.86,0.381 1.86,0.9801 1.8601,1.5412 1.86,2.1079 1.8599,2.7152 1.8599,3.3917 1.86,4.1623 1.8601,5.0469 1.86,6.0613 1.86,7.2142 1.86,8.5048 1.86,9.9181 1.8601,11.4197 1.86,12.9502 1.8599,14.4221 1.8599,15.7203 1.86,16.7084 1.8601,17.2476 1.86,17.2211 1.86,16.5675 1.86,15.306 1.8599,13.5473 1.8602,11.4771 1.8599,9.3148 1.86,7.2632 1.86,5.4661 1.86,3.9934 1.8601,2.8506 1.86,2.0006 1.8599,1.3884 1.8599,0.9574 1.86,0.6586 1.8601,0.4532 1.86,0.3128 1.86,0.2169 1.86,0.1512 1.86,0.106 1.8601,0.075 1.86,0.0532 1.8599,0.0382 1.8599,0.0276 1.86,0.0201 1.8601,0.0147 1.86,0.0109 1.86,0.008 1.86,0.006 1.8599,0.005 1.8602,0.004 1.8599,0.003 1.86,0.002 1.86,0.002 1.86,10e-4 1.8601,9e-4 1.86,8e-4 1.8599,6e-4 1.8599,5e-4 1.86,4e-4 1.8601,3e-4 1.86,3e-4 1.86,2e-4 1.86,10e-5 1.86,2e-4 1.8601,1e-4 1.86,10e-5 1.8599,10e-5 1.8599,10e-5 h 1.86 1.8601 l 1.86,10e-5 1.86,1e-4 h 1.86 1.8599 1.8602 1.8599 l 1.86,10e-5 h 1.86 1.86 1.8601 1.86 1.8599 1.8599 1.86 1.8601"
             style="fill:none;fill-rule:evenodd;stroke:#44aa99"
             id="path2095" />
          <path
             d="m 250,628.4757 1.86,-0.0877 1.86,-0.0408 1.86,-0.005 1.86,0.024 1.86,0.0474 1.86,0.067 1.86,0.0841 1.86,0.0998 1.86,0.1146 1.86,0.1291 1.86,0.1438 1.86,0.159 1.86,0.1748 1.86,0.1916 1.86,0.2094 1.86,0.2287 1.86,0.2495 1.86,0.2717 1.86,0.296 1.86,0.3222 1.86,0.3506 1.86,0.3812 1.86,0.4146 1.86,0.4505 1.86,0.4894 1.86,0.5316 1.86,0.577 1.86,0.6261 1.86,0.679 1.86,0.7359 1.86,0.7974 1.86,0.8632 1.86,0.934 1.86,1.0098 1.86,1.0909 1.86,1.1777 1.86,1.2699 1.86,1.3682 1.86,1.4726 1.86,1.5829 1.86,1.6996 1.86,1.8223 1.86,1.9511 1.86,2.0857 1.86,2.226 1.86,2.3714 1.86,2.5214 1.86,2.6755 1.86,2.8328 1.86,2.9923 1.86,3.153 1.86,3.3136 1.86,3.4727 1.86,3.6287 1.86,3.7799 1.86,3.9248 1.86,4.0612 1.86,4.1875 1.86,4.3016 1.86,4.4019 1.86,4.4867 1.86,4.5543 1.86,4.6036 1.86,4.6335 1.86,4.6432 1.86,4.6322 1.86,4.6007 1.86,4.5488 1.86,4.4773 1.86,4.3871 1.86,4.2797 1.86,4.1565 1.86,4.0196 1.86,3.8706 1.86,3.7121 1.86,3.5458 1.86,3.374 1.86,3.1989 1.86,3.0223 1.86,2.8459 1.86,2.6716 1.86,2.5008 1.86,2.3344 1.86,2.1737 1.86,2.0194 1.86,1.8721 1.86,1.7323 1.86,1.6001 1.86,1.4757 1.86,1.3592 1.86,1.2501 1.86,1.1486 1.86,1.0542 1.86,0.9666 1.86,0.8855 1.86,0.8105 1.86,0.7413 1.86,0.6772 1.86,0.6183 1.86,0.5637 1.86,0.5134 1.86,0.4669 1.86,0.424 1.86,0.3841 1.86,0.3473 1.86,0.313 1.86,0.2811 1.86,0.2513 1.86,0.2234 1.86,0.1973 1.86,0.1726 1.86,0.1494 1.86,0.1272 1.86,0.1062 1.86,0.0859 1.86,0.0665 1.86,0.0477 1.86,0.0293 1.86,0.0113 1.86,-0.006 1.86,-0.0239 1.86,-0.0414 1.86,-0.0589 1.86,-0.0766 1.86,-0.0947 1.86,-0.1131 1.86,-0.132 1.86,-0.1516 1.86,-0.172 1.86,-0.1933 1.86,-0.2158 1.86,-0.2394 1.86,-0.2647 1.86,-0.2915 1.86,-0.3204 1.86,-0.3513 1.86,-0.3848 1.86,-0.4212 1.86,-0.4608 1.86,-0.5041 1.86,-0.5516 1.86,-0.6039 1.86,-0.6618 1.86,-0.7258 1.86,-0.7971 1.86,-0.8766 1.86,-0.9657 1.86,-1.0657 1.86,-1.1783 1.86,-1.3056 1.86,-1.4497 1.86,-1.6135 1.86,-1.7998 1.86,-2.0123 1.86,-2.255 1.86,-2.5323 1.86,-2.8492 1.86,-3.2109 1.86,-3.6224 1.86,-4.0885 1.86,-4.6123 1.86,-5.1944 1.86,-5.8315 1.86,-6.5131 1.86,-7.2202 1.86,-7.9217 1.86,-8.5742 1.86,-9.1219 1.86,-9.5028 1.86,-9.6564 1.86,-9.5383 1.86,-9.1319 1.86,-8.4558 1.86,-7.5627 1.86,-6.5285 1.86,-5.4355 1.86,-4.3574 1.86,-3.3489 1.86,-2.4428 1.86,-1.6525 1.86,-0.9764 1.86,-0.4045 1.86,0.078 1.86,0.4866 1.86,0.8361 1.86,1.1399 1.86,1.4087 1.86,1.6511 1.86,1.8747 1.86,2.0842 1.86,2.2837 1.86,2.4761 1.86,2.6631 1.86,2.8461 1.86,3.0253 1.86,3.2006 1.86,3.3719 1.86,3.5382 1.86,3.6983 1.86,3.851 1.86,3.9948 1.86,4.1279 1.86,4.249 1.86,4.356 1.86,4.4476 1.86,4.5221 1.86,4.5784 1.86,4.6154 1.86,4.632 1.86,4.6283 1.86,4.6036 1.86,4.5584 1.86,4.4932 1.86,4.4092 1.86,4.3072 1.86,4.189 1.86,4.0566 1.86,3.9114 1.86,3.7559 1.86,3.5922 1.86,3.4222 1.86,3.2482 1.86,3.0722 1.86,2.8959 1.86,2.7212 1.86,2.5494 1.86,2.3818 1.86,2.2196 1.86,2.0635 1.86,1.9143 1.86,1.7724 1.86,1.638 1.86,1.5115 1.86,1.3926 1.86,1.2815 1.86,1.1779 1.86,1.0814 1.86,0.9919 1.86,0.9089 1.86,0.8322 1.86,0.7613 1.86,0.6958 1.86,0.6354 1.86,0.5795 1.86,0.528 1.86,0.4804 1.86,0.4365 1.86,0.3957 1.86,0.3579 1.86,0.3229 1.86,0.2903 1.86,0.2599 1.86,0.2315 1.86,0.2048 1.86,0.1798 1.86,0.156 1.86,0.1335 1.86,0.1121 1.86,0.0917 1.86,0.072 1.86,0.0529 1.86,0.0344 1.86,0.0162 1.86,-10e-4 1.86,-0.0191 1.86,-0.0367 1.86,-0.0542 1.86,-0.072 1.86,-0.0899 1.86,-0.1082 1.86,-0.1271 1.86,-0.1466 1.86,-0.1667 1.86,-0.1879 1.86,-0.2101 1.86,-0.2335 1.86,-0.2583 1.86,-0.2848 1.86,-0.3132 1.86,-0.3436 1.86,-0.3766 1.86,-0.4122 1.86,-0.451 1.86,-0.4935 1.86,-0.5399 1.86,-0.5912 1.86,-0.6475 1.86,-0.7101 1.86,-0.7796 1.86,-0.8571 1.86,-0.9438 1.86,-1.041 1.86,-1.1507 1.86,-1.2742 1.86,-1.4142 1.86,-1.573 1.86,-1.7537 1.86,-1.9597 1.86,-2.1949 1.86,-2.4636 1.86,-2.7707 1.86,-3.1212 1.86,-3.5204 1.86,-3.9732 1.86,-4.4828 1.86,-5.0512 1.86,-5.6756 1.86,-6.3477 1.86,-7.0505 1.86,-7.7561 1.86,-8.4242 1.86,-9.0015 1.86,-9.4267 1.86,-9.6383 1.86,-9.5868 1.86,-9.2482 1.86,-8.6323 1.86,-7.7847 1.86,-6.7769 1.86,-5.6911 1.86,-4.6043 1.86,-3.576 1.86,-2.6441 1.86,-1.8261 1.86,-1.1236 1.86,-0.5282 1.86,-0.0257 1.86,0.3991 1.86,0.7619 1.86,1.0757 1.86,1.3521 1.86,1.6007 1.86,1.8284 1.8601,2.0411 1.8599,2.243 1.86,2.4372 1.86,2.6257 1.86,2.8097 1.86,2.99 1.86,3.1664 1.8599,3.3388 1.8601,3.5064 1.86,3.668 1.86,3.8224 1.86,3.9683 1.86,4.1038 1.86,4.2275 1.86,4.3374 1.86,4.4325 1.86,4.5104 1.86,4.5705 1.86,4.6113 1.86,4.6321 1.86,4.6323 1.86,4.6117 1.86,4.5705 1.86,4.5091 1.86,4.4285 1.8601,4.3299 1.8599,4.2148 1.86,4.0846 1.86,3.9418 1.86,3.788 1.86,3.6255 1.86,3.4565 1.8599,3.283 1.8601,3.1071 1.86,2.9306 1.86,2.7553 1.86,2.5827 1.86,2.4142 1.86,2.2507 1.86,2.0933 1.86,1.9426 1.86,1.7993 1.86,1.6633 1.86,1.5352 1.86,1.4149 1.86,1.3022 1.86,1.1971 1.86,1.0993 1.86,1.0084 1.86,0.9242 1.8601,0.8464 1.8599,0.7743 1.86,0.7078 1.86,0.6465 1.86,0.5897 1.86,0.5375 1.86,0.4892 1.8599,0.4445 1.8601,0.4032 1.86,0.3649 1.86,0.3295 1.86,0.2964 1.86,0.2655 1.86,0.2368 1.86,0.2099 1.86,0.1845 1.86,0.1606 1.86,0.1379 1.86,0.1163 1.86,0.0957 1.86,0.0759 1.86,0.0568 1.86,0.0382 1.86,0.0201 1.86,0.002 1.8601,-0.0153 1.8599,-0.0328 1.86,-0.0504 1.86,-0.0679 1.86,-0.0858 1.86,-0.1041 1.86,-0.1227 1.8599,-0.142 1.8601,-0.1619 1.86,-0.1828 1.8601,-0.2046 1.8599,-0.2278 1.8599,-0.2521 1.8601,-0.2783 1.86,-0.306 1.86,-0.3359 1.86,-0.3682 1.86,-0.4031 1.86,-0.4411 1.86,-0.4825 1.8601,-0.5279 1.8599,-0.5778 1.8599,-0.6328 1.8601,-0.6938 1.86,-0.7614 1.86,-0.8368 1.86,-0.921 1.86,-1.0155 1.8601,-1.1217 1.8598,-1.2416 1.8601,-1.3772 1.86,-1.5311 1.86,-1.7059 1.86,-1.9052 1.86,-2.1327 1.8601,-2.3925 1.8599,-2.6895 1.8599,-3.0286 1.8601,-3.4153 1.86,-3.8542 1.86,-4.3495 1.86,-4.9033 1.86,-5.5144 1.86,-6.176 1.86,-6.8737 1.8601,-7.5825 1.8599,-8.2651 1.8599,-8.8713 1.8601,-9.3412 1.86,-9.6124 1.86,-9.6308 1.86,-9.3648 1.86,-8.8155 1.8601,-8.0199 1.8598,-7.0441 1.8601,-5.9698 1.86,-4.8762 1.86,-3.8282 1.86,-2.8696 1.86,-2.022 1.8601,-1.2911 1.8599,-0.6697 1.8599,-0.1455 1.8601,0.2974 1.86,0.6741 1.86,0.999 1.86,1.2838 1.86,1.5384 1.86,1.7706 1.86,1.9866 1.8601,2.1909 1.8599,2.3868 1.8599,2.5764 1.8601,2.7615 1.86,2.9428 1.86,3.1202 1.86,3.2938 1.86,3.4628 1.8601,3.6262 1.8598,3.7828 1.8601,3.9311 1.86,4.0697 1.86,4.1968 1.86,4.3107 1.86,4.41 1.8601,4.4927 1.8599,4.5577 1.8599,4.6039 1.8601,4.6301 1.86,4.6359 1.86,4.6209 1.86,4.5851 1.86,4.5291 1.86,4.4534 1.86,4.3595 1.8601,4.2485 1.8599,4.1221 1.8599,3.9823 1.8601,3.8312 1.86,3.6707 1.86,3.5032 1.86,3.3304 1.86,3.1549 1.8601,2.9783 1.8598,2.8024 1.8601,2.6288 1.86,2.459 1.86,2.294 1.86,2.1349 1.86,1.9822 1.8601,1.8368 1.8599,1.6988 1.8599,1.5686 1.8601,1.446 1.86,1.3315 1.86,1.2242 1.86,1.1245 1.86,1.0317 1.86,0.9459 1.86,0.8663 1.8601,0.7928 1.8599,0.7249 1.8599,0.6622 1.8601,0.6042 1.86,0.5508 1.86,0.5016 1.86,0.456 1.86,0.4138 1.8601,0.3747 1.8598,0.3385 1.8601,0.305 1.86,0.2735 1.86,0.2444 1.86,0.2168 1.86,0.1912 1.8601,0.1669 1.8599,0.1439 1.8599,0.1221 1.8601,0.1013 1.86,0.0813 1.86,0.062 1.86,0.0433 1.86,0.0251 1.86,0.007 1.86,-0.0103 1.8601,-0.0278 1.8599,-0.0453 1.8599,-0.0628 1.8601,-0.0805 1.86,-0.0986 1.86,-0.1171 1.86,-0.136 1.86,-0.1558 1.8601,-0.1764 1.8598,-0.1979 1.8601,-0.2204 1.86,-0.2445 1.86,-0.2699 1.86,-0.2971 1.86,-0.3264 1.8601,-0.3578 1.8599,-0.3918 1.8599,-0.4287 1.8601,-0.469 1.86,-0.5131 1.86,-0.5614 1.86,-0.6148 1.86,-0.6737 1.86,-0.7391 1.86,-0.8119 1.8601,-0.8931 1.8599,-0.9842 1.8599,-1.0865 1.8601,-1.2018 1.86,-1.3322 1.86,-1.4798 1.86,-1.6477 1.86,-1.8389 1.8601,-2.0569 1.8598,-2.306 1.8601,-2.5906 1.86,-2.9158 1.86,-3.2869 1.86,-3.7087 1.86,-4.1859 1.8601,-4.7212 1.8599,-5.3147 1.8599,-5.9616 1.8601,-6.6504 1.86,-7.3594 1.86,-8.0557 1.86,-8.6928 1.86,-9.2135 1.86,-9.5549 1.86,-9.6586 1.8601,-9.4849 1.8599,-9.0232 1.8599,-8.2996 1.8601,-7.3722 1.86,-6.3198 1.86,-5.2238 1.86,-4.1553 1.86,-3.1644 1.8601,-2.2801 1.8598,-1.5123 1.8601,-0.8573 1.86,-0.3038 1.86,0.1632 1.86,0.5592 1.86,0.899 1.8601,1.1953 1.8599,1.4584 1.8599,1.697 1.8601,1.9174 1.86,2.1249 1.86,2.3231 1.86,2.5146 1.86,2.701 1.86,2.8834 1.86,3.0622 1.8601,3.2371 1.8599,3.4078 1.8599,3.5731 1.8601,3.7323 1.86,3.8836 1.86,4.0257 1.86,4.1569 1.86,4.2754 1.8601,4.3797 1.8598,4.4683 1.8601,4.5394 1.86,4.592 1.86,4.625 1.86,4.6376 1.8601,4.6296 1.86,4.6006 1.8599,4.5513 1.8599,4.4821 1.86,4.3939 1.8601,4.2884 1.86,4.1669 1.86,4.0313 1.86,3.8836 1.86,3.7258 1.8601,3.5603 1.86,3.389 1.8599,3.2141 1.8599,3.0375 1.86,2.8611 1.8601,2.6865 1.86,2.5152 1.86,2.3484 1.86,2.1871 1.8599,2.0323 1.8602,1.8843 1.8599,1.7438 1.86,1.6108 1.86,1.4859 1.86,1.3684 1.8601,1.2589 1.86,1.1567 1.8599,1.0616 1.8599,0.9735 1.86,0.8919 1.8601,0.8164 1.86,0.7466 1.86,0.6823 1.86,0.6228 1.86,0.568 1.8601,0.5173 1.86,0.4706 1.8599,0.4273 1.8599,0.3874 1.86,0.3501 1.8601,0.3158 1.86,0.2837 1.86,0.2538 1.86,0.2258 1.8599,0.1996 1.8602,0.1748 1.8599,0.1514 1.86,0.1294 1.86,0.1082 1.86,0.0879 1.8601,0.0685 1.86,0.0496 1.8599,0.0314 1.8599,0.0134 1.86,-0.004 1.8601,-0.0218 1.86,-0.0391 1.86,-0.0566 1.86,-0.0741 1.86,-0.0921 1.8601,-0.1104 1.86,-0.1292 1.8599,-0.1485 1.8599,-0.1688 1.86,-0.1899 1.8601,-0.212 1.86,-0.2355 1.86,-0.2604 1.86,-0.2868 1.8599,-0.3153 1.8602,-0.3457 1.8599,-0.3789 1.86,-0.4145 1.86,-0.4536 1.86,-0.4961 1.8601,-0.5428 1.86,-0.5941 1.8599,-0.6509 1.8599,-0.7138 1.86,-0.7835 1.8601,-0.8616 1.86,-0.9487 1.86,-1.0467 1.86,-1.1568 1.86,-1.2812 1.8601,-1.4221 1.86,-1.5821 1.8599,-1.764 1.8599,-1.9715 1.86,-2.2084 1.8601,-2.4792 1.86,-2.7887 1.86,-3.1418 1.86,-3.5441 1.8599,-4.0001 1.8602,-4.5136 1.8599,-5.0856 1.86,-5.7137 1.86,-6.3888 1.86,-7.0939 1.8601,-7.8 1.86,-8.466 1.8599,-9.0381 1.8599,-9.4545 1.86,-9.6538 1.8601,-9.5874 1.86,-9.2327 1.86,-8.602 1.86,-7.7423 1.86,-6.7267 1.8601,-5.6374 1.86,-4.5512 1.8599,-3.5263 1.8599,-2.5997 1.86,-1.7879 1.8601,-1.0915 1.86,-0.5016 1.86,-0.004 1.86,0.4167 1.8599,0.776 1.8602,1.0871 1.8599,1.3615 1.86,1.6082 1.86,1.8348 1.86,2.0466 1.8601,2.2479 1.86,2.4415 1.8599,2.6298 1.8599,2.8136 1.86,2.9937 1.8601,3.1702 1.86,3.3427 1.86,3.5102 1.86,3.672 1.86,3.8265 1.8601,3.9726 1.86,4.1081 1.8599,4.2318 1.8599,4.3421 1.86,4.4368 1.8601,4.515 1.86,4.575 1.86,4.6156 1.86,4.6363 1.8599,4.6364 1.8602,4.6154 1.8599,4.574 1.86,4.5123 1.86,4.4314 1.86,4.3324 1.8601,4.2168 1.86,4.0863 1.8599,3.943 1.8599,3.7889 1.86,3.6259 1.8601,3.4566"
             style="fill:none;fill-rule:evenodd;stroke:#44aa99"
             id="path2097" />
          <path
             d="m 250,532.4241 1.86,-0.1106 1.86,-0.0674 1.86,-0.0414 1.86,-0.0255 1.86,-0.0159 1.86,-0.01 1.86,-0.006 1.86,-0.004 1.86,-0.003 1.86,-0.002 1.86,-0.002 1.86,-9e-4 1.86,-8e-4 1.86,-6e-4 1.86,-5e-4 1.86,-4e-4 1.86,-4e-4 1.86,-2e-4 1.86,-3e-4 1.86,-2e-4 1.86,-10e-5 1.86,-2e-4 1.86,-10e-5 1.86,-1e-4 1.86,-2e-4 h 1.86 l 1.86,-10e-5 1.86,-1e-4 h 1.86 l 1.86,-10e-5 h 1.86 1.86 1.86 l 1.86,-10e-5 h 1.86 l 1.86,-10e-5 h 1.86 1.86 1.86 1.86 1.86 1.86 1.86 1.86 1.86 1.86 l 1.86,-10e-5 h 1.86 1.86 1.86 1.86 1.86 1.86 1.86 1.86 1.86 1.86 1.86 1.86 1.86 1.86 1.86 1.86 1.86 1.86 1.86 1.86 1.86 1.86 1.86 1.86 1.86 1.86 1.86 1.86 1.86 1.86 1.86 1.86 1.86 1.86 1.86 1.86 1.86 1.86 1.86 1.86 1.86 1.86 1.86 1.86 1.86 1.86 1.86 1.86 1.86 1.86 1.86 1.86 1.86 1.86 1.86 1.86 1.86 1.86 1.86 1.86 1.86 1.86 1.86 1.86 1.86 1.86 1.86 1.86 1.86 1.86 1.86 1.86 1.86 1.86 1.86 1.86 1.86 1.86 1.86 1.86 1.86 1.86 1.86 1.86 1.86 1.86 1.86 1.86 1.86 1.86 1.86 1.86 1.86 1.86 1.86 1.86 1.86 1.86 1.86 1.86 1.86 1.86 1.86 1.86 1.86 1.86 1.86 1.86 1.86 1.86 1.86 1.86 1.86 1.86 1.86 1.86 1.86 1.86 1.86 1.86 1.86 1.86 1.86 1.86 1.86 1.86 1.86 1.86 1.86 1.86 1.86 1.86 1.86 1.86 1.86 1.86 1.86 1.86 1.86 1.86 1.86 1.86 1.86 1.86 1.86 1.86 1.86 1.86 1.86 1.86 1.86 1.86 1.86 1.86 1.86 1.86 1.86 1.86 1.86 1.86 1.86 1.86 1.86 1.86 1.86 1.86 1.86 1.86 1.86 1.86 1.86 1.86 1.86 1.86 1.86 1.86 1.86 1.86 1.86 1.86 1.86 1.86 1.86 1.86 1.86 1.86 1.86 1.86 1.86 1.86 1.86 1.86 1.86 1.86 1.86 1.86 1.86 1.86 1.86 1.86 1.86 1.86 1.86 1.86 1.86 1.86 1.86 1.86 1.86 1.86 1.86 1.86 1.86 1.86 1.86 1.86 1.86 1.86 1.86 1.86 1.86 1.86 1.86 1.86 1.86 1.86 1.86 1.86 1.86 1.86 1.86 1.86 1.86 1.86 1.86 1.86 1.86 1.86 1.86 1.86 1.86 1.86 1.86 1.86 1.86 1.86 1.86 1.86 1.86 1.86 1.86 1.86 1.86 1.86 1.86 1.86 1.86 1.86 1.86 1.86 1.86 1.86 1.86 1.86 1.86 1.86 1.86 1.86 1.86 1.86 1.86 1.86 1.86 1.86 1.86 1.86 1.86 1.86 1.86 1.86 1.86 1.86 1.86 1.86 1.86 1.86 1.8601 1.8599 1.86 1.86 1.86 1.86 1.86 1.8599 1.8601 1.86 1.86 1.86 1.86 1.86 1.86 1.86 1.86 1.86 1.86 1.86 1.86 1.86 1.86 1.86 1.86 1.8601 1.8599 1.86 1.86 1.86 1.86 1.86 1.8599 1.8601 1.86 1.86 1.86 1.86 1.86 1.86 1.86 1.86 1.86 1.86 1.86 1.86 1.86 1.86 1.86 1.86 1.8601 1.8599 1.86 1.86 1.86 1.86 1.86 1.8599 1.8601 1.86 1.86 1.86 1.86 1.86 1.86 1.86 1.86 1.86 1.86 1.86 1.86 1.86 1.86 1.86 1.86 1.8601 1.8599 1.86 1.86 1.86 1.86 1.86 1.8599 1.8601 1.86 1.8601 1.8599 1.8599 1.8601 1.86 1.86 1.86 1.86 1.86 1.86 1.8601 1.8599 1.8599 1.8601 1.86 1.86 1.86 1.86 1.8601 1.8598 1.8601 1.86 1.86 1.86 1.86 1.8601 1.8599 1.8599 1.8601 1.86 1.86 1.86 1.86 1.86 1.86 1.8601 1.8599 1.8599 1.8601 1.86 1.86 1.86 1.86 1.8601 1.8598 1.8601 1.86 1.86 1.86 1.86 1.8601 1.8599 1.8599 1.8601 1.86 1.86 1.86 1.86 1.86 1.86 1.8601 1.8599 1.8599 1.8601 1.86 1.86 1.86 1.86 1.8601 1.8598 1.8601 1.86 1.86 1.86 1.86 1.8601 1.8599 1.8599 1.8601 1.86 1.86 1.86 1.86 1.86 1.86 1.8601 1.8599 1.8599 1.8601 1.86 1.86 1.86 1.86 1.8601 1.8598 1.8601 1.86 1.86 1.86 1.86 1.8601 1.8599 1.8599 1.8601 1.86 1.86 1.86 1.86 1.86 1.86 1.8601 1.8599 1.8599 1.8601 1.86 1.86 1.86 1.86 1.8601 1.8598 1.8601 1.86 1.86 1.86 1.86 1.8601 1.8599 1.8599 1.8601 1.86 1.86 1.86 1.86 1.86 1.86 1.8601 1.8599 1.8599 1.8601 1.86 1.86 1.86 1.86 1.8601 1.8598 1.8601 1.86 1.86 1.86 1.86 1.8601 1.8599 1.8599 1.8601 1.86 1.86 1.86 1.86 1.86 1.86 1.8601 1.8599 1.8599 1.8601 1.86 1.86 1.86 1.86 1.8601 1.8598 1.8601 1.86 1.86 1.86 1.86 1.8601 1.8599 1.8599 1.8601 1.86 1.86 1.86 1.86 1.86 1.86 1.8601 1.8599 1.8599 1.8601 1.86 1.86 1.86 1.86 1.8601 1.8598 1.8601 1.86 1.86 1.86 1.86 1.8601 1.8599 1.8599 1.8601 1.86 1.86 1.86 1.86 1.86 1.86 1.8601 1.8599 1.8599 1.8601 1.86 1.86 1.86 1.86 1.8601 1.8598 1.8601 1.86 1.86 1.86 1.8601 1.86 1.8599 1.8599 1.86 1.8601 1.86 1.86 1.86 1.86 1.8601 1.86 1.8599 1.8599 1.86 1.8601 1.86 1.86 1.86 1.8599 1.8602 1.8599 1.86 1.86 1.86 1.8601 1.86 1.8599 1.8599 1.86 1.8601 1.86 1.86 1.86 1.86 1.8601 1.86 1.8599 1.8599 1.86 1.8601 1.86 1.86 1.86 1.8599 1.8602 1.8599 1.86 1.86 1.86 1.8601 1.86 1.8599 1.8599 1.86 1.8601 1.86 1.86 1.86 1.86 1.8601 1.86 1.8599 1.8599 1.86 1.8601 1.86 1.86 1.86 1.8599 1.8602 1.8599 1.86 1.86 1.86 1.8601 1.86 1.8599 1.8599 1.86 1.8601 1.86 1.86 1.86 1.86 1.8601 1.86 1.8599 1.8599 1.86 1.8601 1.86 1.86 1.86 1.8599 1.8602 1.8599 1.86 1.86 1.86 1.8601 1.86 1.8599 1.8599 1.86 1.8601 1.86 1.86 1.86 1.86 1.8601 1.86 1.8599 1.8599 1.86 1.8601 1.86 1.86 1.86 1.8599 1.8602 1.8599 1.86 1.86 1.86 1.8601 1.86 1.8599 1.8599 1.86 1.8601 1.86 1.86 1.86 1.86 1.8601 1.86 1.8599 1.8599 1.86 1.8601 1.86 1.86 1.86 1.8599 1.8602 1.8599 1.86 1.86 1.86 1.8601 1.86 1.8599 1.8599 1.86 1.8601"
             style="fill:none;fill-rule:evenodd;stroke:#ddcc77"
             id="path2099" />
          <path
             d="m 250,565.2507 1.86,-0.1106 1.86,-0.0701 1.86,-0.0439 1.86,-0.027 1.86,-0.0161 1.86,-0.009 1.86,-0.005 1.86,-0.002 1.86,-2e-4 1.86,9e-4 1.86,0.002 1.86,0.002 1.86,0.002 1.86,0.002 1.86,0.002 1.86,0.002 1.86,0.002 1.86,0.002 1.86,0.002 1.86,0.002 1.86,0.002 1.86,0.002 1.86,0.002 1.86,0.002 1.86,0.002 1.86,0.002 1.86,0.002 1.86,10e-4 1.86,10e-4 1.86,10e-4 1.86,0.001 1.86,10e-4 1.86,10e-4 1.86,10e-4 1.86,10e-4 1.86,0.001 1.86,10e-4 1.86,10e-4 1.86,9e-4 1.86,10e-4 1.86,9e-4 1.86,8e-4 1.86,9e-4 1.86,8e-4 1.86,8e-4 1.86,8e-4 1.86,7e-4 1.86,7e-4 1.86,7e-4 1.86,6e-4 1.86,7e-4 1.86,6e-4 1.86,6e-4 1.86,6e-4 1.86,5e-4 1.86,5e-4 1.86,5e-4 1.86,6e-4 1.86,5e-4 1.86,5e-4 1.86,4e-4 1.86,4e-4 1.86,4e-4 1.86,4e-4 1.86,4e-4 1.86,4e-4 1.86,4e-4 1.86,3e-4 1.86,4e-4 1.86,3e-4 1.86,4e-4 1.86,3e-4 1.86,3e-4 1.86,3e-4 1.86,2e-4 1.86,3e-4 1.86,3e-4 1.86,2e-4 1.86,3e-4 1.86,2e-4 1.86,3e-4 1.86,2e-4 1.86,2e-4 1.86,2e-4 1.86,2e-4 1.86,3e-4 1.86,10e-5 1.86,2e-4 1.86,2e-4 1.86,2e-4 1.86,10e-5 1.86,2e-4 1.86,2e-4 1.86,10e-5 1.86,10e-5 1.86,2e-4 1.86,10e-5 1.86,2e-4 1.86,1e-4 1.86,2e-4 1.86,10e-5 1.86,1e-4 1.86,10e-5 1.86,10e-5 1.86,10e-5 1.86,10e-5 1.86,1e-4 1.86,10e-5 1.86,10e-5 1.86,10e-5 1.86,1e-4 1.86,10e-5 h 1.86 l 1.86,2e-4 h 1.86 l 1.86,10e-5 1.86,1e-4 1.86,10e-5 h 1.86 l 1.86,10e-5 h 1.86 l 1.86,2e-4 h 1.86 1.86 l 1.86,2e-4 h 1.86 1.86 l 1.86,10e-5 h 1.86 l 1.86,10e-5 1.86,1e-4 h 1.86 1.86 l 1.86,10e-5 h 1.86 1.86 l 1.86,10e-5 1.86,10e-5 h 1.86 1.86 1.86 l 1.86,1e-4 h 1.86 1.86 l 1.86,10e-5 h 1.86 1.86 l 1.86,10e-5 h 1.86 1.86 1.86 1.86 l 1.86,10e-5 h 1.86 l 1.86,10e-5 h 1.86 1.86 1.86 1.86 1.86 l 1.86,1e-4 h 1.86 1.86 1.86 1.86 1.86 1.86 1.86 l 1.86,10e-5 h 1.86 1.86 1.86 l 1.86,10e-5 h 1.86 1.86 1.86 1.86 1.86 1.86 1.86 1.86 1.86 1.86 1.86 1.86 l 1.86,10e-5 h 1.86 1.86 1.86 1.86 1.86 1.86 1.86 1.86 1.86 1.86 1.86 1.86 l 1.86,1e-4 h 1.86 1.86 1.86 1.86 1.86 1.86 1.86 1.86 1.86 1.86 1.86 1.86 1.86 1.86 1.86 1.86 1.86 l 1.86,10e-5 h 1.86 1.86 1.86 1.86 1.86 1.86 1.86 1.86 1.86 1.86 1.86 1.86 1.86 1.86 1.86 1.86 1.86 1.86 1.86 1.86 1.86 1.86 1.86 1.86 1.86 1.86 1.86 1.86 1.86 1.86 1.86 1.86 1.86 1.86 1.86 1.86 1.86 1.86 1.86 1.86 1.86 1.86 1.86 1.86 1.86 1.86 1.86 1.86 1.86 1.86 1.86 1.86 1.86 1.86 1.86 1.86 1.86 1.86 1.86 1.86 1.86 1.86 1.86 1.86 1.86 1.86 1.86 1.86 1.86 1.86 1.86 1.86 1.86 1.86 1.86 1.86 1.86 1.86 1.86 1.86 1.86 1.86 1.86 1.86 1.86 1.86 1.86 1.86 1.86 1.86 1.86 1.86 1.86 1.86 1.86 1.86 l 1.86,10e-5 h 1.86 1.86 1.86 1.86 1.86 1.86 1.86 1.86 1.86 1.86 1.86 1.86 1.86 1.86 1.86 1.86 1.86 1.86 1.86 1.8601 1.8599 1.86 1.86 1.86 1.86 1.86 1.8599 1.8601 1.86 1.86 1.86 1.86 1.86 1.86 1.86 1.86 1.86 1.86 1.86 1.86 1.86 1.86 1.86 1.86 1.8601 1.8599 1.86 1.86 1.86 1.86 1.86 1.8599 1.8601 1.86 1.86 1.86 1.86 1.86 1.86 1.86 1.86 1.86 1.86 1.86 1.86 1.86 1.86 1.86 1.86 1.8601 1.8599 1.86 1.86 1.86 1.86 1.86 1.8599 1.8601 1.86 1.86 1.86 1.86 1.86 1.86 1.86 1.86 1.86 1.86 1.86 1.86 1.86 1.86 1.86 1.86 1.8601 1.8599 1.86 1.86 1.86 1.86 1.86 1.8599 1.8601 1.86 1.8601 1.8599 1.8599 1.8601 1.86 1.86 1.86 1.86 1.86 1.86 1.8601 1.8599 1.8599 1.8601 1.86 1.86 1.86 1.86 1.8601 1.8598 1.8601 1.86 1.86 1.86 1.86 1.8601 1.8599 1.8599 1.8601 1.86 1.86 1.86 1.86 1.86 1.86 1.8601 1.8599 1.8599 1.8601 1.86 1.86 1.86 1.86 1.8601 1.8598 1.8601 1.86 1.86 1.86 1.86 1.8601 1.8599 1.8599 1.8601 1.86 1.86 1.86 1.86 1.86 1.86 1.8601 1.8599 1.8599 1.8601 1.86 1.86 1.86 1.86 1.8601 1.8598 1.8601 1.86 1.86 1.86 1.86 1.8601 1.8599 1.8599 1.8601 1.86 1.86 1.86 1.86 1.86 1.86 1.8601 1.8599 1.8599 1.8601 1.86 1.86 1.86 1.86 1.8601 1.8598 1.8601 1.86 1.86 1.86 1.86 1.8601 1.8599 1.8599 1.8601 1.86 1.86 1.86 1.86 1.86 1.86 1.8601 1.8599 1.8599 1.8601 1.86 1.86 1.86 1.86 1.8601 1.8598 1.8601 1.86 1.86 1.86 1.86 1.8601 1.8599 1.8599 1.8601 1.86 1.86 1.86 1.86 1.86 1.86 1.8601 1.8599 1.8599 1.8601 1.86 1.86 1.86 1.86 1.8601 1.8598 1.8601 1.86 1.86 1.86 1.86 1.8601 1.8599 1.8599 1.8601 1.86 1.86 1.86 1.86 1.86 1.86 1.8601 1.8599 1.8599 1.8601 1.86 1.86 1.86 1.86 1.8601 1.8598 1.8601 1.86 1.86 1.86 1.86 1.8601 1.8599 1.8599 1.8601 1.86 1.86 1.86 1.86 1.86 1.86 1.8601 1.8599 1.8599 1.8601 1.86 1.86 1.86 1.86 1.8601 1.8598 1.8601 1.86 1.86 1.86 1.86 1.8601 1.8599 1.8599 1.8601 1.86 1.86 1.86 1.86 1.86 1.86 1.8601 1.8599 1.8599 1.8601 1.86 1.86 1.86 1.86 1.8601 1.8598 1.8601 1.86 1.86 1.86 1.8601 1.86 1.8599 1.8599 1.86 1.8601 1.86 1.86 1.86 1.86 1.8601 1.86 1.8599 1.8599 1.86 1.8601 1.86 1.86 1.86 1.8599 1.8602 1.8599 1.86 1.86 1.86 1.8601 1.86 1.8599 1.8599 1.86 1.8601 1.86 1.86 1.86 1.86 1.8601 1.86 1.8599 1.8599 1.86 1.8601 1.86 1.86 1.86 1.8599 1.8602 1.8599 1.86 1.86 1.86 1.8601 1.86 1.8599 1.8599 1.86 1.8601 1.86 1.86 1.86 1.86 1.8601 1.86 1.8599 1.8599 1.86 1.8601 1.86 1.86 1.86 1.8599 1.8602 1.8599 1.86 1.86 1.86 1.8601 1.86 1.8599 1.8599 1.86 1.8601 1.86 1.86 1.86 1.86 1.8601 1.86 1.8599 1.8599 1.86 1.8601 1.86 1.86 1.86 1.8599 1.8602 1.8599 1.86 1.86 1.86 1.8601 1.86 1.8599 1.8599 1.86 1.8601 1.86 1.86 1.86 1.86 1.8601 1.86 1.8599 1.8599 1.86 1.8601 1.86 1.86 1.86 1.8599 1.8602 1.8599 1.86 1.86 1.86 1.8601 1.86 1.8599 1.8599 1.86 1.8601 1.86 1.86 1.86 1.86 1.8601 1.86 1.8599 1.8599 1.86 1.8601 1.86 1.86 1.86 1.8599 1.8602 1.8599 1.86 1.86 1.86 1.8601 1.86 1.8599 1.8599 1.86 1.8601"
             style="fill:none;fill-rule:evenodd;stroke:#ddcc77"
             id="path2101" />
          <path
             d="m 250,598.6213 1.86,-0.1063 1.86,-0.068 1.86,-0.0413 1.86,-0.0229 1.86,-0.0101 1.86,-10e-4 1.86,0.005 1.86,0.009 1.86,0.0123 1.86,0.0145 1.86,0.016 1.86,0.0172 1.86,0.0181 1.86,0.0188 1.86,0.0193 1.86,0.0197 1.86,0.0201 1.86,0.0205 1.86,0.0208 1.86,0.0212 1.86,0.0214 1.86,0.0218 1.86,0.0221 1.86,0.0224 1.86,0.0227 1.86,0.023 1.86,0.0233 1.86,0.0237 1.86,0.024 1.86,0.0243 1.86,0.0247 1.86,0.0251 1.86,0.0254 1.86,0.0258 1.86,0.0262 1.86,0.0266 1.86,0.0271 1.86,0.0274 1.86,0.0279 1.86,0.0282 1.86,0.0288 1.86,0.0291 1.86,0.0297 1.86,0.0301 1.86,0.0307 1.86,0.0311 1.86,0.0316 1.86,0.0322 1.86,0.0327 1.86,0.0333 1.86,0.0338 1.86,0.0344 1.86,0.0349 1.86,0.0356 1.86,0.0361 1.86,0.0368 1.86,0.0375 1.86,0.038 1.86,0.0388 1.86,0.0394 1.86,0.0402 1.86,0.0409 1.86,0.0415 1.86,0.0424 1.86,0.043 1.86,0.0439 1.86,0.0446 1.86,0.0454 1.86,0.0463 1.86,0.0471 1.86,0.0479 1.86,0.0489 1.86,0.0497 1.86,0.0507 1.86,0.0516 1.86,0.0525 1.86,0.0535 1.86,0.0546 1.86,0.0555 1.86,0.0565 1.86,0.0576 1.86,0.0587 1.86,0.0598 1.86,0.0609 1.86,0.062 1.86,0.0632 1.86,0.0644 1.86,0.0655 1.86,0.0669 1.86,0.068 1.86,0.0694 1.86,0.0706 1.86,0.072 1.86,0.0734 1.86,0.0747 1.86,0.0761 1.86,0.0775 1.86,0.0791 1.86,0.0804 1.86,0.0821 1.86,0.0835 1.86,0.0851 1.86,0.0867 1.86,0.0883 1.86,0.09 1.86,0.0917 1.86,0.0933 1.86,0.0951 1.86,0.0969 1.86,0.0986 1.86,0.1005 1.86,0.1024 1.86,0.1042 1.86,0.1062 1.86,0.1081 1.86,0.11 1.86,0.1121 1.86,0.1142 1.86,0.1162 1.86,0.1183 1.86,0.1204 1.86,0.1227 1.86,0.1248 1.86,0.1271 1.86,0.1293 1.86,0.1316 1.86,0.134 1.86,0.1363 1.86,0.1387 1.86,0.1412 1.86,0.1436 1.86,0.1462 1.86,0.1485 1.86,0.1512 1.86,0.1537 1.86,0.1564 1.86,0.1591 1.86,0.1617 1.86,0.1643 1.86,0.1672 1.86,0.1699 1.86,0.1727 1.86,0.1755 1.86,0.1784 1.86,0.1812 1.86,0.1841 1.86,0.1871 1.86,0.19 1.86,0.193 1.86,0.196 1.86,0.199 1.86,0.202 1.86,0.2051 1.86,0.2082 1.86,0.2113 1.86,0.2144 1.86,0.2175 1.86,0.2207 1.86,0.2239 1.86,0.227 1.86,0.2302 1.86,0.2334 1.86,0.2366 1.86,0.2398 1.86,0.243 1.86,0.2462 1.86,0.2495 1.86,0.2526 1.86,0.2559 1.86,0.2591 1.86,0.2622 1.86,0.2655 1.86,0.2686 1.86,0.2718 1.86,0.275 1.86,0.2781 1.86,0.2812 1.86,0.2843 1.86,0.2874 1.86,0.2904 1.86,0.2935 1.86,0.2964 1.86,0.2994 1.86,0.3023 1.86,0.3053 1.86,0.308 1.86,0.3108 1.86,0.3135 1.86,0.3163 1.86,0.3189 1.86,0.3215 1.86,0.324 1.86,0.3266 1.86,0.3289 1.86,0.3313 1.86,0.3336 1.86,0.3357 1.86,0.3379 1.86,0.34 1.86,0.3419 1.86,0.3439 1.86,0.3457 1.86,0.3474 1.86,0.3491 1.86,0.3506 1.86,0.3522 1.86,0.3535 1.86,0.3547 1.86,0.3559 1.86,0.3571 1.86,0.3579 1.86,0.3589 1.86,0.3597 1.86,0.3603 1.86,0.3608 1.86,0.3614 1.86,0.3616 1.86,0.3619 1.86,0.362 1.86,0.3619 1.86,0.3619 1.86,0.3616 1.86,0.3613 1.86,0.3608 1.86,0.3603 1.86,0.3594 1.86,0.3588 1.86,0.3578 1.86,0.3567 1.86,0.3556 1.86,0.3544 1.86,0.3529 1.86,0.3514 1.86,0.3498 1.86,0.3481 1.86,0.3463 1.86,0.3443 1.86,0.3424 1.86,0.3401 1.86,0.3379 1.86,0.3356 1.86,0.3331 1.86,0.3306 1.86,0.3279 1.86,0.3252 1.86,0.3224 1.86,0.3195 1.86,0.3166 1.86,0.3134 1.86,0.3104 1.86,0.307 1.86,0.3039 1.86,0.3004 1.86,0.2971 1.86,0.2935 1.86,0.2901 1.86,0.2864 1.86,0.2828 1.86,0.2791 1.86,0.2754 1.86,0.2716 1.86,0.2678 1.86,0.2639 1.86,0.2601 1.86,0.2561 1.86,0.2522 1.86,0.2483 1.86,0.2443 1.86,0.2403 1.86,0.2363 1.86,0.2323 1.86,0.2283 1.86,0.2243 1.86,0.2203 1.86,0.2162 1.86,0.2123 1.86,0.2083 1.86,0.2043 1.86,0.2004 1.86,0.1964 1.86,0.1925 1.86,0.1886 1.86,0.1847 1.86,0.1809 1.86,0.1771 1.86,0.1733 1.86,0.1695 1.86,0.1659 1.86,0.1621 1.86,0.1586 1.86,0.1549 1.86,0.1514 1.86,0.1479 1.86,0.1444 1.86,0.141 1.86,0.1376 1.86,0.1342 1.86,0.1311 1.86,0.1278 1.86,0.1246 1.86,0.1215 1.86,0.1184 1.86,0.1153 1.86,0.1125 1.86,0.1095 1.86,0.1067 1.86,0.1038 1.86,0.1011 1.86,0.0985 1.86,0.0957 1.86,0.0931 1.86,0.0906 1.86,0.0882 1.86,0.0857 1.86,0.0833 1.86,0.081 1.86,0.0786 1.86,0.0765 1.86,0.0743 1.86,0.0722 1.86,0.0701 1.86,0.0681 1.86,0.0661 1.86,0.0641 1.86,0.0624 1.86,0.0604 1.86,0.0587 1.86,0.0569 1.86,0.0553 1.86,0.0536 1.86,0.0519 1.86,0.0505 1.86,0.0489 1.8601,0.0473 1.8599,0.046 1.86,0.0446 1.86,0.0432 1.86,0.0418 1.86,0.0406 1.86,0.0393 1.8599,0.0381 1.8601,0.0369 1.86,0.0358 1.86,0.0347 1.86,0.0335 1.86,0.0326 1.86,0.0315 1.86,0.0305 1.86,0.0295 1.86,0.0287 1.86,0.0277 1.86,0.0268 1.86,0.026 1.86,0.0251 1.86,0.0244 1.86,0.0235 1.86,0.0229 1.86,0.022 1.8601,0.0215 1.8599,0.0207 1.86,0.02 1.86,0.0194 1.86,0.0188 1.86,0.0182 1.86,0.0175 1.8599,0.0171 1.8601,0.0165 1.86,0.0159 1.86,0.0154 1.86,0.015 1.86,0.0144 1.86,0.014 1.86,0.0135 1.86,0.0131 1.86,0.0127 1.86,0.0122 1.86,0.0119 1.86,0.0116 1.86,0.0111 1.86,0.0107 1.86,0.0105 1.86,0.01 1.86,0.01 1.8601,0.009 1.8599,0.009 1.86,0.009 1.86,0.009 1.86,0.008 1.86,0.008 1.86,0.008 1.8599,0.008 1.8601,0.007 1.86,0.007 1.86,0.007 1.86,0.007 1.86,0.006 1.86,0.006 1.86,0.006 1.86,0.006 1.86,0.006 1.86,0.005 1.86,0.005 1.86,0.005 1.86,0.005 1.86,0.005 1.86,0.005 1.86,0.004 1.86,0.004 1.8601,0.004 1.8599,0.004 1.86,0.004 1.86,0.004 1.86,0.004 1.86,0.004 1.86,0.004 1.8599,0.003 1.8601,0.003 1.86,0.003 1.8601,0.003 1.8599,0.003 1.8599,0.003 1.8601,0.003 1.86,0.003 1.86,0.002 1.86,0.003 1.86,0.002 1.86,0.002 1.86,0.002 1.8601,0.002 1.8599,0.002 1.8599,0.002 1.8601,0.002 1.86,0.002 1.86,0.002 1.86,0.002 1.86,0.002 1.8601,0.002 1.8598,0.002 1.8601,0.002 1.86,0.002 1.86,0.002 1.86,10e-4 1.86,10e-4 1.8601,10e-4 1.8599,10e-4 1.8599,0.001 1.8601,10e-4 1.86,10e-4 1.86,10e-4 1.86,10e-4 1.86,0.001 1.86,10e-4 1.86,10e-4 1.8601,10e-4 1.8599,9e-4 1.8599,10e-4 1.8601,0.001 1.86,9e-4 1.86,9e-4 1.86,8e-4 1.86,9e-4 1.8601,8e-4 1.8598,8e-4 1.8601,7e-4 1.86,8e-4 1.86,7e-4 1.86,7e-4 1.86,7e-4 1.8601,6e-4 1.8599,6e-4 1.8599,7e-4 1.8601,6e-4 1.86,6e-4 1.86,6e-4 1.86,5e-4 1.86,6e-4 1.86,5e-4 1.86,5e-4 1.8601,5e-4 1.8599,4e-4 1.8599,5e-4 1.8601,4e-4 1.86,5e-4 1.86,5e-4 1.86,4e-4 1.86,4e-4 1.8601,4e-4 1.8598,3e-4 1.8601,4e-4 1.86,4e-4 1.86,3e-4 1.86,4e-4 1.86,3e-4 1.8601,3e-4 1.8599,4e-4 1.8599,3e-4 1.8601,3e-4 1.86,3e-4 1.86,2e-4 1.86,4e-4 1.86,2e-4 1.86,2e-4 1.86,3e-4 1.8601,3e-4 1.8599,2e-4 1.8599,3e-4 1.8601,2e-4 1.86,2e-4 1.86,2e-4 1.86,2e-4 1.86,2e-4 1.8601,2e-4 1.8598,2e-4 1.8601,2e-4 1.86,2e-4 1.86,2e-4 1.86,10e-5 1.86,2e-4 1.8601,2e-4 1.8599,2e-4 1.8599,10e-5 1.8601,2e-4 1.86,10e-5 1.86,2e-4 1.86,10e-5 1.86,10e-5 1.86,10e-5 1.86,2e-4 1.8601,10e-5 1.8599,2e-4 h 1.8599 l 1.8601,2e-4 1.86,10e-5 1.86,10e-5 1.86,10e-5 1.86,1e-4 1.8601,10e-5 1.8598,10e-5 1.8601,10e-5 1.86,1e-4 1.86,10e-5 1.86,10e-5 h 1.86 l 1.8601,2e-4 h 1.8599 l 1.8599,1e-4 1.8601,10e-5 1.86,10e-5 h 1.86 l 1.86,10e-5 1.86,1e-4 1.86,10e-5 h 1.86 l 1.8601,10e-5 1.8599,10e-5 1.8599,10e-5 h 1.8601 l 1.86,1e-4 h 1.86 l 1.86,10e-5 h 1.86 l 1.8601,2e-4 h 1.8598 1.8601 l 1.86,1e-4 h 1.86 1.86 l 1.86,10e-5 1.8601,10e-5 h 1.8599 l 1.8599,10e-5 h 1.8601 1.86 l 1.86,10e-5 h 1.86 l 1.86,1e-4 h 1.86 1.86 l 1.8601,10e-5 h 1.8599 1.8599 l 1.8601,10e-5 h 1.86 l 1.86,10e-5 h 1.86 1.86 1.8601 1.8598 l 1.8601,10e-5 1.86,1e-4 h 1.86 1.86 1.86 l 1.8601,10e-5 h 1.8599 1.8599 1.8601 1.86 1.86 l 1.86,10e-5 h 1.86 1.86 l 1.86,10e-5 h 1.8601 1.8599 1.8599 1.8601 1.86 l 1.86,1e-4 h 1.86 1.86 1.8601 1.8598 1.8601 1.86 1.86 l 1.86,10e-5 h 1.86 1.8601 l 1.8599,10e-5 h 1.8599 1.8601 1.86 1.86 1.86 1.86 1.86 1.86 1.8601 1.8599 1.8599 l 1.8601,10e-5 h 1.86 1.86 1.86 1.86 1.8601 1.8598 1.8601 1.86 1.86 1.86 1.8601 1.86 1.8599 1.8599 l 1.86,10e-5 h 1.8601 1.86 1.86 1.86 1.86 1.8601 l 1.86,1e-4 h 1.8599 1.8599 1.86 1.8601 1.86 1.86 1.86 1.8599 1.8602 1.8599 1.86 1.86 1.86 1.8601 1.86 1.8599 1.8599 1.86 1.8601 1.86 1.86 1.86 1.86 1.8601 1.86 1.8599 1.8599 1.86 1.8601 1.86 1.86 1.86 1.8599 1.8602 1.8599 1.86 1.86 1.86 1.8601 1.86 1.8599 1.8599 1.86 1.8601 1.86 1.86 1.86 1.86 1.8601 1.86 1.8599 1.8599 1.86 1.8601 1.86 1.86 1.86 1.8599 1.8602 1.8599 1.86 1.86 1.86 1.8601 1.86 1.8599 1.8599 1.86 1.8601 1.86 1.86 1.86 1.86 1.8601 1.86 1.8599 1.8599 1.86 1.8601 1.86 1.86 1.86 1.8599 1.8602 1.8599 1.86 1.86 1.86 1.8601 1.86 1.8599 1.8599 1.86 1.8601 1.86 1.86 1.86 1.86 1.8601 1.86 1.8599 1.8599 1.86 1.8601 1.86 1.86 1.86 1.8599 1.8602 1.8599 1.86 1.86 1.86 1.8601 1.86 1.8599 1.8599 1.86 1.8601 1.86 1.86 1.86 1.86 1.8601 1.86 1.8599 1.8599 1.86 1.8601 1.86 1.86 1.86 1.8599 1.8602 1.8599 1.86 1.86 1.86 1.8601 1.86 1.8599 1.8599 1.86 1.8601"
             style="fill:none;fill-rule:evenodd;stroke:#cc6677"
             id="path2103" />
          <path
             d="m 250,599.9286 1.86,-0.1082 1.86,-0.0713 1.86,-0.046 1.86,-0.0288 1.86,-0.017 1.86,-0.009 1.86,-0.004 h 1.86 l 1.86,0.002 1.86,0.004 1.86,0.005 1.86,0.005 1.86,0.005 1.86,0.006 1.86,0.005 1.86,0.005 1.86,0.005 1.86,0.005 1.86,0.005 1.86,0.004 1.86,0.004 1.86,0.004 1.86,0.004 1.86,0.004 1.86,0.003 1.86,0.003 1.86,0.003 1.86,0.003 1.86,0.003 1.86,0.002 1.86,0.002 1.86,0.002 1.86,0.002 1.86,0.002 1.86,0.002 1.86,0.002 1.86,0.002 1.86,10e-4 1.86,0.002 1.86,10e-4 1.86,10e-4 1.86,10e-4 1.86,10e-4 1.86,0.001 1.86,10e-4 1.86,9e-4 1.86,9e-4 1.86,9e-4 1.86,8e-4 1.86,8e-4 1.86,7e-4 1.86,6e-4 1.86,7e-4 1.86,6e-4 1.86,6e-4 1.86,5e-4 1.86,5e-4 1.86,5e-4 1.86,5e-4 1.86,4e-4 1.86,4e-4 1.86,3e-4 1.86,4e-4 1.86,4e-4 1.86,3e-4 1.86,3e-4 1.86,2e-4 1.86,3e-4 1.86,3e-4 1.86,2e-4 1.86,2e-4 1.86,2e-4 1.86,2e-4 1.86,2e-4 1.86,2e-4 1.86,2e-4 1.86,10e-5 1.86,2e-4 1.86,10e-5 1.86,10e-5 1.86,2e-4 1.86,10e-5 1.86,10e-5 1.86,10e-5 1.86,1e-4 1.86,10e-5 1.86,10e-5 h 1.86 l 1.86,10e-5 1.86,1e-4 1.86,10e-5 h 1.86 l 1.86,10e-5 h 1.86 l 1.86,10e-5 1.86,10e-5 h 1.86 1.86 l 1.86,1e-4 H 436 l 1.86,10e-5 h 1.86 1.86 l 1.86,10e-5 h 1.86 1.86 1.86 l 1.86,10e-5 h 1.86 l 1.86,1e-4 h 1.86 1.86 1.86 1.86 1.86 1.86 1.86 l 1.86,10e-5 h 1.86 1.86 1.86 1.86 1.86 1.86 1.86 1.86 1.86 1.86 1.86 1.86 l 1.86,10e-5 h 1.86 1.86 1.86 1.86 1.86 1.86 1.86 1.86 1.86 1.86 1.86 1.86 1.86 1.86 1.86 l 1.86,10e-5 h 1.86 1.86 1.86 1.86 1.86 1.86 1.86 1.86 1.86 1.86 1.86 1.86 1.86 1.86 1.86 1.86 1.86 1.86 1.86 1.86 1.86 1.86 1.86 1.86 1.86 1.86 1.86 1.86 1.86 1.86 1.86 1.86 1.86 1.86 1.86 1.86 1.86 1.86 1.86 1.86 1.86 1.86 1.86 1.86 1.86 1.86 1.86 1.86 1.86 1.86 1.86 1.86 1.86 1.86 1.86 1.86 1.86 1.86 1.86 1.86 1.86 1.86 1.86 1.86 1.86 1.86 1.86 1.86 1.86 1.86 1.86 1.86 1.86 1.86 1.86 1.86 1.86 1.86 1.86 1.86 1.86 1.86 1.86 1.86 1.86 1.86 1.86 1.86 1.86 1.86 1.86 1.86 1.86 1.86 1.86 1.86 1.86 1.86 1.86 1.86 1.86 1.86 1.86 1.86 1.86 1.86 1.86 1.86 1.86 1.86 1.86 1.86 1.86 1.86 1.86 1.86 1.86 1.86 1.86 1.86 1.86 1.86 1.86 1.86 1.86 1.86 1.86 1.86 1.86 1.86 1.86 1.86 1.86 1.86 1.86 1.86 1.86 1.86 1.86 1.86 1.86 1.86 1.86 1.86 1.86 1.86 1.86 1.86 1.86 1.86 1.86 1.86 1.86 1.86 1.86 1.86 1.86 1.86 1.86 1.86 1.86 1.86 1.86 1.86 1.86 1.86 1.86 1.86 1.86 1.86 1.86 1.86 1.86 1.86 1.86 1.86 1.86 1.86 1.86 1.86 1.86 1.86 1.86 1.86 1.86 1.86 1.8601 1.8599 1.86 1.86 1.86 1.86 1.86 1.8599 1.8601 1.86 1.86 1.86 1.86 1.86 1.86 1.86 1.86 1.86 1.86 1.86 1.86 1.86 1.86 1.86 1.86 1.8601 1.8599 1.86 1.86 1.86 1.86 1.86 1.8599 1.8601 1.86 1.86 1.86 1.86 1.86 1.86 1.86 1.86 1.86 1.86 1.86 1.86 1.86 1.86 1.86 1.86 1.8601 1.8599 1.86 1.86 1.86 1.86 1.86 1.8599 1.8601 1.86 1.86 1.86 1.86 1.86 1.86 1.86 1.86 1.86 1.86 1.86 1.86 1.86 1.86 1.86 1.86 1.8601 1.8599 1.86 1.86 1.86 1.86 1.86 1.8599 1.8601 1.86 1.8601 1.8599 1.8599 1.8601 1.86 1.86 1.86 1.86 1.86 1.86 1.8601 1.8599 1.8599 1.8601 1.86 1.86 1.86 1.86 1.8601 1.8598 1.8601 1.86 1.86 1.86 1.86 1.8601 1.8599 1.8599 1.8601 1.86 1.86 1.86 1.86 1.86 1.86 1.8601 1.8599 1.8599 1.8601 1.86 1.86 1.86 1.86 1.8601 1.8598 1.8601 1.86 1.86 1.86 1.86 1.8601 1.8599 1.8599 1.8601 1.86 1.86 1.86 1.86 1.86 1.86 1.8601 1.8599 1.8599 1.8601 1.86 1.86 1.86 1.86 1.8601 1.8598 1.8601 1.86 1.86 1.86 1.86 1.8601 1.8599 1.8599 1.8601 1.86 1.86 1.86 1.86 1.86 1.86 1.8601 1.8599 1.8599 1.8601 1.86 1.86 1.86 1.86 1.8601 1.8598 1.8601 1.86 1.86 1.86 1.86 1.8601 1.8599 1.8599 1.8601 1.86 1.86 1.86 1.86 1.86 1.86 1.8601 1.8599 1.8599 1.8601 1.86 1.86 1.86 1.86 1.8601 1.8598 1.8601 1.86 1.86 1.86 1.86 1.8601 1.8599 1.8599 1.8601 1.86 1.86 1.86 1.86 1.86 1.86 1.8601 1.8599 1.8599 1.8601 1.86 1.86 1.86 1.86 1.8601 1.8598 1.8601 1.86 1.86 1.86 1.86 1.8601 1.8599 1.8599 1.8601 1.86 1.86 1.86 1.86 1.86 1.86 1.8601 1.8599 1.8599 1.8601 1.86 1.86 1.86 1.86 1.8601 1.8598 1.8601 1.86 1.86 1.86 1.86 1.8601 1.8599 1.8599 1.8601 1.86 1.86 1.86 1.86 1.86 1.86 1.8601 1.8599 1.8599 1.8601 1.86 1.86 1.86 1.86 1.8601 1.8598 1.8601 1.86 1.86 1.86 1.86 1.8601 1.8599 1.8599 1.8601 1.86 1.86 1.86 1.86 1.86 1.86 1.8601 1.8599 1.8599 1.8601 1.86 1.86 1.86 1.86 1.8601 1.8598 1.8601 1.86 1.86 1.86 1.8601 1.86 1.8599 1.8599 1.86 1.8601 1.86 1.86 1.86 1.86 1.8601 1.86 1.8599 1.8599 1.86 1.8601 1.86 1.86 1.86 1.8599 1.8602 1.8599 1.86 1.86 1.86 1.8601 1.86 1.8599 1.8599 1.86 1.8601 1.86 1.86 1.86 1.86 1.8601 1.86 1.8599 1.8599 1.86 1.8601 1.86 1.86 1.86 1.8599 1.8602 1.8599 1.86 1.86 1.86 1.8601 1.86 1.8599 1.8599 1.86 1.8601 1.86 1.86 1.86 1.86 1.8601 1.86 1.8599 1.8599 1.86 1.8601 1.86 1.86 1.86 1.8599 1.8602 1.8599 1.86 1.86 1.86 1.8601 1.86 1.8599 1.8599 1.86 1.8601 1.86 1.86 1.86 1.86 1.8601 1.86 1.8599 1.8599 1.86 1.8601 1.86 1.86 1.86 1.8599 1.8602 1.8599 1.86 1.86 1.86 1.8601 1.86 1.8599 1.8599 1.86 1.8601 1.86 1.86 1.86 1.86 1.8601 1.86 1.8599 1.8599 1.86 1.8601 1.86 1.86 1.86 1.8599 1.8602 1.8599 1.86 1.86 1.86 1.8601 1.86 1.8599 1.8599 1.86 1.8601 1.86 1.86 1.86 1.86 1.8601 1.86 1.8599 1.8599 1.86 1.8601 1.86 1.86 1.86 1.8599 1.8602 1.8599 1.86 1.86 1.86 1.8601 1.86 1.8599 1.8599 1.86 1.8601"
             style="fill:none;fill-rule:evenodd;stroke:#cc6677"
             id="path2105" />
        </g>
      </g>
    </g>
  </g>
</svg>
